<svg version="1.1" id="Layer_1" xmlns="http://www.w3.org/2000/svg" xmlns:xlink="http://www.w3.org/1999/xlink" x="0px" y="0px"
	 width="100%" viewBox="0 0 1756 494" enable-background="new 0 0 1756 494" xml:space="preserve">
<path fill="#FFFFFF" opacity="1.000000" stroke="none" 
	d="
M4.000000,495.000000 
	C3.000097,495.000000 2.000193,495.000000 1.000217,495.000000 
	C1.000145,330.349335 1.000145,165.698700 1.000145,1.024025 
	C586.260742,1.024025 1171.521484,1.024025 1756.891113,1.024025 
	C1756.891113,165.578079 1756.891113,330.156250 1756.891113,495.000000 
	C1271.969116,495.000000 786.938171,495.000000 301.445312,494.726624 
	C300.972748,494.271240 300.962128,494.089233 300.987915,493.446686 
	C301.024323,329.889038 301.024323,166.791885 301.024323,3.578068 
	C201.681229,3.578068 102.970398,3.578068 3.941767,3.578068 
	C3.941767,5.962302 3.941766,7.949790 3.941767,9.937278 
	C3.941773,169.432083 3.941432,328.926880 3.945931,488.421692 
	C3.945982,490.253754 4.008824,492.085815 4.028338,494.188263 
	C4.009548,494.639069 4.004774,494.819519 4.000000,495.000000 
M628.723022,381.229706 
	C636.790039,375.699341 645.555115,370.951813 652.795776,364.494812 
	C676.421753,343.426056 688.741211,316.244049 693.182434,285.269806 
	C697.559753,254.741287 695.514160,224.852905 683.164368,196.212280 
	C662.431335,148.130020 622.344604,123.684647 573.165405,121.454498 
	C535.260925,119.735634 497.217407,121.158165 459.237000,120.946236 
	C454.414001,120.919319 453.095093,122.257027 453.102814,127.080338 
	C453.243134,214.870728 453.203735,302.661377 453.215149,390.451996 
	C453.215363,392.202881 453.366699,393.953796 453.461975,396.017853 
	C455.732849,396.017853 457.384583,396.017975 459.036346,396.017822 
	C494.685669,396.014923 530.335083,396.042755 565.984314,395.997681 
	C587.775696,395.970093 608.570679,391.544159 628.723022,381.229706 
M1332.387573,188.239014 
	C1320.727417,188.238968 1309.061401,188.450638 1297.409790,188.135284 
	C1292.711304,188.008102 1290.864258,189.175049 1291.180298,194.167770 
	C1291.603516,200.850937 1291.285034,207.581039 1291.285034,214.939636 
	C1290.126709,214.105179 1289.666992,213.903458 1289.390137,213.556015 
	C1268.575317,187.431442 1240.843140,180.567291 1209.341431,185.601852 
	C1177.503418,190.690140 1155.678711,209.865387 1141.874146,237.932205 
	C1127.973389,266.194183 1126.482300,296.120514 1134.706787,326.403839 
	C1141.838501,352.664032 1156.455322,373.935791 1179.805786,388.185822 
	C1209.867432,406.531464 1248.175903,403.662231 1276.742920,381.710693 
	C1281.606812,377.973328 1286.010864,373.637665 1291.338379,368.953064 
	C1291.338379,378.499146 1291.338379,387.087585 1291.338379,395.684692 
	C1308.022217,395.684692 1324.264893,395.684692 1341.052734,395.684692 
	C1341.052734,393.419281 1341.052734,391.465271 1341.052734,389.511230 
	C1341.052734,325.047211 1341.060791,260.583160 1341.042969,196.119141 
	C1341.040649,187.738449 1342.109131,188.254395 1332.387573,188.239014 
M750.035950,363.445435 
	C767.031006,385.608643 788.684448,399.206116 817.291443,399.997711 
	C845.415527,400.775970 868.294556,389.225769 888.357178,368.781891 
	C888.357178,378.519806 888.357178,387.109436 888.357178,395.682800 
	C905.096558,395.682800 921.350891,395.682800 937.747253,395.682800 
	C937.747253,326.494934 937.747253,257.626892 937.747253,188.627426 
	C921.299011,188.627426 905.242310,188.627426 888.537292,188.627426 
	C888.537292,197.516785 888.537292,206.037704 888.537292,216.050522 
	C880.925293,205.875031 872.783325,198.584747 862.940979,193.389893 
	C846.949951,184.949707 829.909973,183.014053 812.064636,184.786545 
	C788.219666,187.154953 769.015137,198.070923 753.574402,215.794556 
	C737.995789,233.676483 729.995972,254.859833 727.835205,278.421295 
	C725.011353,309.212585 730.983582,337.656494 750.035950,363.445435 
M1738.093628,228.596634 
	C1743.422729,215.760834 1748.751831,202.925018 1754.402100,189.315857 
	C1751.874146,189.147247 1750.286377,188.951752 1748.698242,188.949341 
	C1733.536255,188.926453 1718.372803,189.050049 1703.213257,188.857468 
	C1699.372925,188.808701 1697.662354,190.192642 1696.432739,193.779373 
	C1692.171753,206.208755 1687.510132,218.500198 1683.063354,230.866577 
	C1671.526978,262.949799 1660.023193,295.044769 1648.508789,327.135864 
	C1647.214600,330.742706 1645.935669,334.355011 1644.163696,339.328491 
	C1641.377686,332.930267 1639.225464,328.121582 1637.179565,323.268066 
	C1618.953979,280.029816 1600.717407,236.796066 1582.591431,193.516113 
	C1581.142944,190.057602 1579.106689,188.824539 1575.402100,188.866470 
	C1560.408691,189.036133 1545.412231,188.925613 1530.416870,188.955215 
	C1528.998291,188.958008 1527.580200,189.217361 1525.470215,189.425995 
	C1526.229980,191.852844 1526.634521,193.756790 1527.406006,195.498169 
	C1530.034912,201.431732 1532.841553,207.286224 1535.494263,213.209518 
	C1562.499634,273.512390 1589.441528,333.843903 1616.576416,394.088440 
	C1618.589722,398.558411 1618.786743,402.163208 1616.766846,406.723480 
	C1605.713989,431.678009 1595.032959,456.796997 1584.158691,481.830994 
	C1582.742798,485.090546 1582.652588,486.613617 1587.098633,486.515228 
	C1600.918091,486.209473 1614.751221,486.086487 1628.567749,486.397980 
	C1632.036865,486.476196 1633.205688,485.327728 1634.334229,482.515930 
	C1654.165771,433.102753 1673.908569,383.652893 1694.020020,334.353546 
	C1708.349121,299.228241 1723.196167,264.314240 1738.093628,228.596634 
M1497.386597,151.907623 
	C1501.314209,153.953491 1505.241821,155.999359 1509.746460,158.345810 
	C1513.079224,150.126648 1516.256226,142.137970 1519.552002,134.198547 
	C1524.939697,121.219780 1524.512817,119.708984 1511.592529,113.254639 
	C1497.038818,105.984200 1481.818481,103.302284 1465.656982,106.936134 
	C1445.750610,111.412025 1431.043213,122.379257 1421.893433,140.731857 
	C1416.939697,150.668030 1415.573486,161.335159 1415.216797,172.196320 
	C1414.994507,178.966812 1415.175415,185.750549 1415.175415,193.105576 
	C1405.810669,193.105576 1397.024780,193.238647 1388.246216,193.044144 
	C1384.401367,192.958939 1382.882202,194.205597 1382.964966,198.200439 
	C1383.171875,208.191925 1383.028931,218.190598 1383.031982,228.186386 
	C1383.034424,236.090363 1383.038208,236.093399 1390.949829,236.097305 
	C1398.880371,236.101212 1406.811035,236.098175 1415.171631,236.098175 
	C1415.171631,238.668747 1415.171631,240.472122 1415.171631,242.275497 
	C1415.171631,291.421478 1415.246338,340.567719 1415.060425,389.713013 
	C1415.041016,394.832764 1416.525513,396.268829 1421.560791,396.127075 
	C1433.879150,395.780151 1446.213867,396.024292 1458.541992,396.001556 
	C1460.301758,395.998322 1462.061157,395.834106 1464.167236,395.726746 
	C1464.167236,393.338257 1464.167358,391.526245 1464.167358,389.714233 
	C1464.167603,340.568268 1464.216309,291.422150 1464.088745,242.276489 
	C1464.076660,237.595871 1465.305542,235.834259 1470.293335,235.981812 
	C1482.277832,236.336334 1494.281616,235.978683 1506.273682,236.164093 
	C1510.015137,236.221954 1511.177246,234.935043 1511.112915,231.255646 
	C1510.921143,220.263611 1510.857910,209.261459 1511.133667,198.273026 
	C1511.244019,193.881180 1509.483643,192.974533 1505.546265,193.035751 
	C1493.221069,193.227402 1480.890259,193.029297 1468.563477,193.157928 
	C1465.356567,193.191391 1464.022827,192.138931 1464.129395,188.853500 
	C1464.296631,183.694336 1463.990967,178.517532 1464.221436,173.363205 
	C1464.803467,160.349792 1469.349731,153.199829 1479.988159,151.008148 
	C1485.261353,149.921799 1491.059204,151.383499 1497.386597,151.907623 
M1057.338867,136.185989 
	C1046.178467,136.186035 1035.018188,136.186249 1023.857849,136.186050 
	C1016.196533,136.185928 1016.197876,136.185684 1016.197815,143.600037 
	C1016.197754,157.092484 1016.105896,170.585938 1016.254150,184.076736 
	C1016.294556,187.750137 1015.037231,189.091553 1011.332092,189.031540 
	C1000.840698,188.861649 990.343262,189.076218 979.851624,188.914291 
	C976.416382,188.861298 975.079834,190.006393 975.116150,193.495850 
	C975.240845,205.487839 975.235291,217.482590 975.121216,229.474792 
	C975.088135,232.954605 976.465210,234.141006 979.882935,234.090866 
	C989.875122,233.944260 999.882141,234.321976 1009.860657,233.924271 
	C1014.876160,233.724380 1016.338501,235.076675 1016.317810,240.237289 
	C1016.117737,290.041931 1016.197937,339.847748 1016.197998,389.653198 
	C1016.197998,391.595184 1016.197998,393.537140 1016.197998,396.015350 
	C1018.627502,396.015350 1020.420227,396.015320 1022.213013,396.015350 
	C1034.372925,396.015442 1046.540894,395.755524 1058.688721,396.139404 
	C1063.779785,396.300262 1065.083008,394.854218 1065.062744,389.770142 
	C1064.864258,339.965485 1064.942993,290.159698 1064.942993,240.354233 
	C1064.942993,238.421158 1064.943115,236.488068 1064.943115,234.042084 
	C1067.250000,234.042084 1068.874512,234.042084 1070.499146,234.042068 
	C1081.826172,234.041992 1093.155396,233.911957 1104.478882,234.111862 
	C1108.475952,234.182434 1110.135132,233.087463 1110.046631,228.791428 
	C1109.806763,217.136230 1109.786133,205.468628 1110.060669,193.814941 
	C1110.159058,189.633347 1108.564941,188.833328 1104.824463,188.900269 
	C1093.501099,189.102905 1082.167969,188.801804 1070.846802,189.060165 
	C1066.401245,189.161591 1064.709351,188.049103 1064.827148,183.235580 
	C1065.157349,169.751205 1064.947510,156.253479 1064.941406,142.761032 
	C1064.938354,136.229065 1064.928589,136.229065 1057.338867,136.185989 
z"/>
<path fill="#E1F6F6" opacity="1.000000" stroke="none" 
	d="
M300.951477,493.907166 
	C300.962128,494.089233 300.972748,494.271240 300.991699,494.726624 
	C202.312439,495.000000 103.624878,495.000000 4.468657,495.000000 
	C4.004774,494.819519 4.009548,494.639069 4.492839,494.219574 
	C72.967392,493.987396 140.963440,494.004669 208.959473,493.996521 
	C239.623474,493.992859 270.287476,493.938507 300.951477,493.907166 
z"/>
<path fill="#57C1C2" opacity="1.000000" stroke="none" 
	d="
M300.987915,493.446655 
	C270.287476,493.938507 239.623474,493.992859 208.959473,493.996521 
	C140.963440,494.004669 72.967392,493.987396 4.506855,493.949188 
	C4.008824,492.085815 3.945982,490.253754 3.945931,488.421692 
	C3.941432,328.926880 3.941773,169.432083 3.941767,9.937278 
	C3.941766,7.949790 3.941767,5.962302 3.941767,3.578068 
	C102.970398,3.578068 201.681229,3.578068 301.024323,3.578068 
	C301.024323,166.791885 301.024323,329.889038 300.987915,493.446655 
M41.000824,203.500000 
	C41.000824,267.566010 41.000824,331.632050 41.000824,395.774353 
	C43.032940,395.878113 44.187748,395.988861 45.342522,395.988495 
	C82.838097,395.976929 120.341515,396.378174 157.824585,395.683258 
	C169.491119,395.466949 181.451462,393.485565 192.677689,390.238892 
	C236.899460,377.449707 264.683380,347.520294 276.487793,303.724091 
	C286.338745,267.175659 285.075745,230.522949 269.894775,195.143860 
	C260.459961,173.156097 245.859970,155.263809 225.858521,142.125778 
	C203.354797,127.344109 178.182739,121.278854 151.501862,121.166878 
	C116.506523,121.020004 81.510109,121.125069 46.514156,121.139160 
	C44.768066,121.139862 43.022045,121.305794 41.000824,121.408813 
	C41.000824,148.866074 41.000824,175.683044 41.000824,203.500000 
z"/>
<path fill="#58C2C3" opacity="1.000000" stroke="none" 
	d="
M628.394836,381.404480 
	C608.570679,391.544159 587.775696,395.970093 565.984314,395.997681 
	C530.335083,396.042755 494.685669,396.014923 459.036346,396.017822 
	C457.384583,396.017975 455.732849,396.017853 453.461975,396.017853 
	C453.366699,393.953796 453.215363,392.202881 453.215149,390.451996 
	C453.203735,302.661377 453.243134,214.870728 453.102814,127.080338 
	C453.095093,122.257027 454.414001,120.919319 459.237000,120.946236 
	C497.217407,121.158165 535.260925,119.735634 573.165405,121.454498 
	C622.344604,123.684647 662.431335,148.130020 683.164368,196.212280 
	C695.514160,224.852905 697.559753,254.741287 693.182434,285.269806 
	C688.741211,316.244049 676.421753,343.426056 652.795776,364.494812 
	C645.555115,370.951813 636.790039,375.699341 628.394836,381.404480 
M642.775208,247.948166 
	C641.919800,242.370773 641.246338,236.758209 640.176514,231.222260 
	C636.184265,210.564789 626.202759,193.660217 608.577332,181.688339 
	C594.597656,172.192795 578.959167,168.639084 562.257507,168.735703 
	C544.605103,168.837814 526.951660,168.741943 509.298676,168.760498 
	C507.885040,168.761993 506.471619,168.980362 505.132751,169.091721 
	C505.132751,229.176086 505.132751,288.717743 505.132751,348.541992 
	C506.895569,348.637665 508.357880,348.797699 509.818573,348.784149 
	C529.792236,348.598755 549.799133,349.044617 569.731079,348.026581 
	C597.031860,346.632111 618.509399,334.693604 631.656738,309.916473 
	C641.806458,290.788513 644.052979,270.124329 642.775208,247.948166 
z"/>
<path fill="#58C2C3" opacity="1.000000" stroke="none" 
	d="
M1332.870117,188.239197 
	C1342.109131,188.254395 1341.040649,187.738449 1341.042969,196.119141 
	C1341.060791,260.583160 1341.052734,325.047211 1341.052734,389.511230 
	C1341.052734,391.465271 1341.052734,393.419281 1341.052734,395.684692 
	C1324.264893,395.684692 1308.022217,395.684692 1291.338379,395.684692 
	C1291.338379,387.087585 1291.338379,378.499146 1291.338379,368.953064 
	C1286.010864,373.637665 1281.606812,377.973328 1276.742920,381.710693 
	C1248.175903,403.662231 1209.867432,406.531464 1179.805786,388.185822 
	C1156.455322,373.935791 1141.838501,352.664032 1134.706787,326.403839 
	C1126.482300,296.120514 1127.973389,266.194183 1141.874146,237.932205 
	C1155.678711,209.865387 1177.503418,190.690140 1209.341431,185.601852 
	C1240.843140,180.567291 1268.575317,187.431442 1289.390137,213.556015 
	C1289.666992,213.903458 1290.126709,214.105179 1291.285034,214.939636 
	C1291.285034,207.581039 1291.603516,200.850937 1291.180298,194.167770 
	C1290.864258,189.175049 1292.711304,188.008102 1297.409790,188.135284 
	C1309.061401,188.450638 1320.727417,188.238968 1332.870117,188.239197 
M1196.890991,339.585266 
	C1208.886230,352.375824 1223.776611,357.306549 1241.044556,356.046814 
	C1256.523438,354.917633 1269.736328,348.618683 1278.611694,336.155029 
	C1297.248413,309.983368 1298.219971,282.074005 1282.921021,254.033768 
	C1265.465942,222.041946 1216.372314,218.796906 1194.115723,247.682434 
	C1185.350952,259.057678 1181.410889,271.952454 1180.593628,286.079956 
	C1179.459595,305.679108 1183.140137,323.790131 1196.890991,339.585266 
z"/>
<path fill="#58C2C3" opacity="1.000000" stroke="none" 
	d="
M749.816650,363.165009 
	C730.983582,337.656494 725.011353,309.212585 727.835205,278.421295 
	C729.995972,254.859833 737.995789,233.676483 753.574402,215.794556 
	C769.015137,198.070923 788.219666,187.154953 812.064636,184.786545 
	C829.909973,183.014053 846.949951,184.949707 862.940979,193.389893 
	C872.783325,198.584747 880.925293,205.875031 888.537292,216.050522 
	C888.537292,206.037704 888.537292,197.516785 888.537292,188.627426 
	C905.242310,188.627426 921.299011,188.627426 937.747253,188.627426 
	C937.747253,257.626892 937.747253,326.494934 937.747253,395.682800 
	C921.350891,395.682800 905.096558,395.682800 888.357178,395.682800 
	C888.357178,387.109436 888.357178,378.519806 888.357178,368.781891 
	C868.294556,389.225769 845.415527,400.775970 817.291443,399.997711 
	C788.684448,399.206116 767.031006,385.608643 749.816650,363.165009 
M845.927673,229.357285 
	C844.945618,229.184616 843.964600,229.005844 842.981384,228.840149 
	C818.928650,224.786880 797.564209,234.292114 786.117432,255.684875 
	C774.056946,278.224548 773.966003,302.000061 784.349365,325.018494 
	C802.144592,364.468170 853.786987,365.461823 876.079712,335.806641 
	C890.806946,316.215485 893.320801,294.058228 887.157898,270.843109 
	C881.524780,249.624069 868.678345,235.043976 845.927673,229.357285 
z"/>
<path fill="#58C2C3" opacity="1.000000" stroke="none" 
	d="
M1737.952881,228.951279 
	C1723.196167,264.314240 1708.349121,299.228241 1694.020020,334.353546 
	C1673.908569,383.652893 1654.165771,433.102753 1634.334229,482.515930 
	C1633.205688,485.327728 1632.036865,486.476196 1628.567749,486.397980 
	C1614.751221,486.086487 1600.918091,486.209473 1587.098633,486.515228 
	C1582.652588,486.613617 1582.742798,485.090546 1584.158691,481.830994 
	C1595.032959,456.796997 1605.713989,431.678009 1616.766846,406.723480 
	C1618.786743,402.163208 1618.589722,398.558411 1616.576416,394.088440 
	C1589.441528,333.843903 1562.499634,273.512390 1535.494263,213.209518 
	C1532.841553,207.286224 1530.034912,201.431732 1527.406006,195.498169 
	C1526.634521,193.756790 1526.229980,191.852844 1525.470215,189.425995 
	C1527.580200,189.217361 1528.998291,188.958008 1530.416870,188.955215 
	C1545.412231,188.925613 1560.408691,189.036133 1575.402100,188.866470 
	C1579.106689,188.824539 1581.142944,190.057602 1582.591431,193.516113 
	C1600.717407,236.796066 1618.953979,280.029816 1637.179565,323.268066 
	C1639.225464,328.121582 1641.377686,332.930267 1644.163696,339.328491 
	C1645.935669,334.355011 1647.214600,330.742706 1648.508789,327.135864 
	C1660.023193,295.044769 1671.526978,262.949799 1683.063354,230.866577 
	C1687.510132,218.500198 1692.171753,206.208755 1696.432739,193.779373 
	C1697.662354,190.192642 1699.372925,188.808701 1703.213257,188.857468 
	C1718.372803,189.050049 1733.536255,188.926453 1748.698242,188.949341 
	C1750.286377,188.951752 1751.874146,189.147247 1754.402100,189.315857 
	C1748.751831,202.925018 1743.422729,215.760834 1737.952881,228.951279 
z"/>
<path fill="#58C2C3" opacity="1.000000" stroke="none" 
	d="
M1497.003174,151.800034 
	C1491.059204,151.383499 1485.261353,149.921799 1479.988159,151.008148 
	C1469.349731,153.199829 1464.803467,160.349792 1464.221436,173.363205 
	C1463.990967,178.517532 1464.296631,183.694336 1464.129395,188.853500 
	C1464.022827,192.138931 1465.356567,193.191391 1468.563477,193.157928 
	C1480.890259,193.029297 1493.221069,193.227402 1505.546265,193.035751 
	C1509.483643,192.974533 1511.244019,193.881180 1511.133667,198.273026 
	C1510.857910,209.261459 1510.921143,220.263611 1511.112915,231.255646 
	C1511.177246,234.935043 1510.015137,236.221954 1506.273682,236.164093 
	C1494.281616,235.978683 1482.277832,236.336334 1470.293335,235.981812 
	C1465.305542,235.834259 1464.076660,237.595871 1464.088745,242.276489 
	C1464.216309,291.422150 1464.167603,340.568268 1464.167358,389.714233 
	C1464.167358,391.526245 1464.167236,393.338257 1464.167236,395.726746 
	C1462.061157,395.834106 1460.301758,395.998322 1458.541992,396.001556 
	C1446.213867,396.024292 1433.879150,395.780151 1421.560791,396.127075 
	C1416.525513,396.268829 1415.041016,394.832764 1415.060425,389.713013 
	C1415.246338,340.567719 1415.171631,291.421478 1415.171631,242.275497 
	C1415.171631,240.472122 1415.171631,238.668747 1415.171631,236.098175 
	C1406.811035,236.098175 1398.880371,236.101212 1390.949829,236.097305 
	C1383.038208,236.093399 1383.034424,236.090363 1383.031982,228.186386 
	C1383.028931,218.190598 1383.171875,208.191925 1382.964966,198.200439 
	C1382.882202,194.205597 1384.401367,192.958939 1388.246216,193.044144 
	C1397.024780,193.238647 1405.810669,193.105576 1415.175415,193.105576 
	C1415.175415,185.750549 1414.994507,178.966812 1415.216797,172.196320 
	C1415.573486,161.335159 1416.939697,150.668030 1421.893433,140.731857 
	C1431.043213,122.379257 1445.750610,111.412025 1465.656982,106.936134 
	C1481.818481,103.302284 1497.038818,105.984200 1511.592529,113.254639 
	C1524.512817,119.708984 1524.939697,121.219780 1519.552002,134.198547 
	C1516.256226,142.137970 1513.079224,150.126648 1509.746460,158.345810 
	C1505.241821,155.999359 1501.314209,153.953491 1497.003174,151.800034 
z"/>
<path fill="#59C2C3" opacity="1.000000" stroke="none" 
	d="
M1057.813110,136.185837 
	C1064.928589,136.229065 1064.938354,136.229065 1064.941406,142.761032 
	C1064.947510,156.253479 1065.157349,169.751205 1064.827148,183.235580 
	C1064.709351,188.049103 1066.401245,189.161591 1070.846802,189.060165 
	C1082.167969,188.801804 1093.501099,189.102905 1104.824463,188.900269 
	C1108.564941,188.833328 1110.159058,189.633347 1110.060669,193.814941 
	C1109.786133,205.468628 1109.806763,217.136230 1110.046631,228.791428 
	C1110.135132,233.087463 1108.475952,234.182434 1104.478882,234.111862 
	C1093.155396,233.911957 1081.826172,234.041992 1070.499146,234.042068 
	C1068.874512,234.042084 1067.250000,234.042084 1064.943115,234.042084 
	C1064.943115,236.488068 1064.942993,238.421158 1064.942993,240.354233 
	C1064.942993,290.159698 1064.864258,339.965485 1065.062744,389.770142 
	C1065.083008,394.854218 1063.779785,396.300262 1058.688721,396.139404 
	C1046.540894,395.755524 1034.372925,396.015442 1022.213013,396.015350 
	C1020.420227,396.015320 1018.627502,396.015350 1016.197998,396.015350 
	C1016.197998,393.537140 1016.197998,391.595184 1016.197998,389.653198 
	C1016.197937,339.847748 1016.117737,290.041931 1016.317810,240.237289 
	C1016.338501,235.076675 1014.876160,233.724380 1009.860657,233.924271 
	C999.882141,234.321976 989.875122,233.944260 979.882935,234.090866 
	C976.465210,234.141006 975.088135,232.954605 975.121216,229.474792 
	C975.235291,217.482590 975.240845,205.487839 975.116150,193.495850 
	C975.079834,190.006393 976.416382,188.861298 979.851624,188.914291 
	C990.343262,189.076218 1000.840698,188.861649 1011.332092,189.031540 
	C1015.037231,189.091553 1016.294556,187.750137 1016.254150,184.076736 
	C1016.105896,170.585938 1016.197754,157.092484 1016.197815,143.600037 
	C1016.197876,136.185684 1016.196533,136.185928 1023.857849,136.186050 
	C1035.018188,136.186249 1046.178467,136.186035 1057.813110,136.185837 
z"/>
<path fill="#FEFFFF" opacity="1.000000" stroke="none" 
	d="
M41.000824,203.000000 
	C41.000824,175.683044 41.000824,148.866074 41.000824,121.408813 
	C43.022045,121.305794 44.768066,121.139862 46.514156,121.139160 
	C81.510109,121.125069 116.506523,121.020004 151.501862,121.166878 
	C178.182739,121.278854 203.354797,127.344109 225.858521,142.125778 
	C245.859970,155.263809 260.459961,173.156097 269.894775,195.143860 
	C285.075745,230.522949 286.338745,267.175659 276.487793,303.724091 
	C264.683380,347.520294 236.899460,377.449707 192.677689,390.238892 
	C181.451462,393.485565 169.491119,395.466949 157.824585,395.683258 
	C120.341515,396.378174 82.838097,395.976929 45.342522,395.988495 
	C44.187748,395.988861 43.032940,395.878113 41.000824,395.774353 
	C41.000824,331.632050 41.000824,267.566010 41.000824,203.000000 
M200.967209,332.491486 
	C211.195496,324.461884 218.296722,314.031891 222.960403,302.108643 
	C233.210999,275.901886 233.340988,249.139603 225.623688,222.337036 
	C216.848633,191.860703 189.710129,169.976532 159.293976,168.987656 
	C138.335602,168.306259 117.349892,168.495285 96.379089,168.137527 
	C92.841255,168.077164 91.849312,169.285370 91.854614,172.742706 
	C91.942482,230.036194 91.936012,287.329895 91.861282,344.623444 
	C91.857224,347.735870 92.519081,349.060913 95.980232,349.028564 
	C114.965431,348.851257 133.963272,349.280273 152.936188,348.756073 
	C170.216934,348.278625 186.485184,343.907349 200.967209,332.491486 
z"/>
<path fill="#FEFFFF" opacity="1.000000" stroke="none" 
	d="
M642.837402,248.410660 
	C644.052979,270.124329 641.806458,290.788513 631.656738,309.916473 
	C618.509399,334.693604 597.031860,346.632111 569.731079,348.026581 
	C549.799133,349.044617 529.792236,348.598755 509.818573,348.784149 
	C508.357880,348.797699 506.895569,348.637665 505.132751,348.541992 
	C505.132751,288.717743 505.132751,229.176086 505.132751,169.091721 
	C506.471619,168.980362 507.885040,168.761993 509.298676,168.760498 
	C526.951660,168.741943 544.605103,168.837814 562.257507,168.735703 
	C578.959167,168.639084 594.597656,172.192795 608.577332,181.688339 
	C626.202759,193.660217 636.184265,210.564789 640.176514,231.222260 
	C641.246338,236.758209 641.919800,242.370773 642.837402,248.410660 
z"/>
<path fill="#FEFFFF" opacity="1.000000" stroke="none" 
	d="
M1196.639893,339.331116 
	C1183.140137,323.790131 1179.459595,305.679108 1180.593628,286.079956 
	C1181.410889,271.952454 1185.350952,259.057678 1194.115723,247.682434 
	C1216.372314,218.796906 1265.465942,222.041946 1282.921021,254.033768 
	C1298.219971,282.074005 1297.248413,309.983368 1278.611694,336.155029 
	C1269.736328,348.618683 1256.523438,354.917633 1241.044556,356.046814 
	C1223.776611,357.306549 1208.886230,352.375824 1196.639893,339.331116 
z"/>
<path fill="#FEFFFF" opacity="1.000000" stroke="none" 
	d="
M846.325806,229.487167 
	C868.678345,235.043976 881.524780,249.624069 887.157898,270.843109 
	C893.320801,294.058228 890.806946,316.215485 876.079712,335.806641 
	C853.786987,365.461823 802.144592,364.468170 784.349365,325.018494 
	C773.966003,302.000061 774.056946,278.224548 786.117432,255.684875 
	C797.564209,234.292114 818.928650,224.786880 842.981384,228.840149 
	C843.964600,229.005844 844.945618,229.184616 846.325806,229.487167 
z"/>
<path fill="#58C1C2" opacity="1.000000" stroke="none" 
	d="
M200.693634,332.724548 
	C186.485184,343.907349 170.216934,348.278625 152.936188,348.756073 
	C133.963272,349.280273 114.965431,348.851257 95.980232,349.028564 
	C92.519081,349.060913 91.857224,347.735870 91.861282,344.623444 
	C91.936012,287.329895 91.942482,230.036194 91.854614,172.742706 
	C91.849312,169.285370 92.841255,168.077164 96.379089,168.137527 
	C117.349892,168.495285 138.335602,168.306259 159.293976,168.987656 
	C189.710129,169.976532 216.848633,191.860703 225.623688,222.337036 
	C233.340988,249.139603 233.210999,275.901886 222.960403,302.108643 
	C218.296722,314.031891 211.195496,324.461884 200.693634,332.724548 
z"/>
</svg>