<svg version="1.1" id="Layer_1" xmlns="http://www.w3.org/2000/svg" xmlns:xlink="http://www.w3.org/1999/xlink" x="0px" y="0px"
	 width="100%" viewBox="0 0 3078 1138" enable-background="new 0 0 3078 1138" xml:space="preserve">
<path fill="#FFFFFF" opacity="1.000000" stroke="none" 
	d="
M2192.000000,1139.000000 
	C1461.333374,1139.000000 731.166687,1139.000000 1.000000,1139.000000 
	C1.000000,759.666687 1.000000,380.333344 1.000000,1.000000 
	C1027.000000,1.000000 2053.000000,1.000000 3079.000000,1.000000 
	C3079.000000,380.333344 3079.000000,759.666687 3079.000000,1139.000000 
	C2783.500000,1139.000000 2488.000000,1139.000000 2192.000000,1139.000000 
M346.500000,281.309143 
	C334.746674,281.309143 322.993378,281.309143 311.302368,281.309143 
	C311.302368,481.354309 311.302368,680.569153 311.302368,879.771606 
	C517.403259,879.771606 723.121887,879.771606 929.166504,879.771606 
	C929.166504,680.216125 929.166504,481.023346 929.166504,281.309662 
	C735.043213,281.309662 541.271606,281.309662 346.500000,281.309143 
M1912.300049,475.404968 
	C1911.413574,474.204529 1910.517456,473.011047 1909.642212,471.802521 
	C1902.866699,462.446289 1894.272095,455.674561 1883.251709,451.694092 
	C1871.037354,447.282349 1858.617188,444.194733 1845.671753,443.210754 
	C1838.080933,442.633789 1830.443726,441.164154 1822.913086,441.594727 
	C1805.090332,442.613739 1787.312256,444.459167 1769.528320,446.102051 
	C1755.992554,447.352539 1742.479980,448.851959 1728.946655,450.130524 
	C1726.076782,450.401672 1723.226196,450.169556 1722.149658,453.775635 
	C1721.003662,457.613770 1720.540283,461.045990 1723.854248,464.347656 
	C1726.379028,466.863281 1728.718872,469.839142 1730.226440,473.040833 
	C1732.861084,478.636566 1735.438110,484.413513 1736.827026,490.395996 
	C1738.073242,495.763397 1738.747803,501.691376 1737.825684,507.054138 
	C1735.057617,523.150879 1731.389038,539.092896 1728.065430,555.093872 
	C1726.623169,562.036926 1725.310913,569.011108 1723.681519,575.910217 
	C1721.069092,586.971558 1718.075073,597.944275 1715.556396,609.025757 
	C1713.396729,618.528137 1711.774414,628.151428 1709.737305,637.683289 
	C1707.332764,648.933533 1704.411987,660.082703 1702.316772,671.387207 
	C1700.241455,682.583008 1698.924194,693.919067 1697.257202,705.191040 
	C1696.038330,713.433594 1697.375244,714.745117 1705.984253,715.029358 
	C1723.905518,715.621155 1741.328369,713.166504 1758.258179,707.220886 
	C1759.153687,706.906433 1760.271118,706.794250 1761.180542,707.016296 
	C1769.318970,709.003662 1777.378174,711.353394 1785.571045,713.069946 
	C1794.261963,714.890991 1803.030396,716.924377 1811.844727,717.407410 
	C1820.186279,717.864502 1828.733765,717.045105 1837.003662,715.665771 
	C1846.258667,714.122131 1855.822266,712.507446 1864.325439,708.799927 
	C1879.332153,702.256836 1892.030518,692.487427 1901.375610,678.353821 
	C1912.739502,661.167175 1916.810059,642.859680 1913.754395,622.642883 
	C1912.471924,614.158142 1910.063721,606.090942 1905.114746,599.142517 
	C1896.550903,587.119385 1884.765503,579.362549 1870.737061,574.954834 
	C1866.596802,573.653992 1862.438843,572.408691 1858.063477,571.068909 
	C1863.214966,568.748352 1868.020264,566.317383 1873.017700,564.382874 
	C1887.794556,558.662842 1899.991455,549.653137 1908.661743,536.327209 
	C1915.973022,525.090149 1919.405762,512.597534 1917.708618,499.236298 
	C1916.716797,491.429138 1914.357300,483.795715 1912.300049,475.404968 
M1091.307739,714.731567 
	C1110.563721,716.108887 1129.326294,713.676697 1147.614258,707.494385 
	C1148.681885,707.133484 1149.953491,706.749817 1150.981445,706.996582 
	C1159.284912,708.990417 1167.494629,711.411255 1175.847412,713.153137 
	C1184.539673,714.965759 1193.317749,716.927795 1202.135864,717.412354 
	C1210.310791,717.861633 1218.594604,716.521301 1226.818970,715.832825 
	C1237.795044,714.914062 1248.191040,711.952026 1258.043945,706.953552 
	C1282.126221,694.736328 1298.176392,676.416321 1303.345581,649.236755 
	C1306.532959,632.477295 1305.172485,616.281982 1296.755493,601.573059 
	C1289.143799,588.271301 1276.498901,580.344788 1262.204590,575.251221 
	C1257.660522,573.631897 1252.932007,572.529602 1247.970947,571.099365 
	C1248.606445,570.577698 1248.907227,570.205811 1249.296753,570.029236 
	C1258.888184,565.679199 1269.233154,562.484436 1277.932739,556.779480 
	C1295.733521,545.106201 1307.190308,528.983948 1307.931641,506.591339 
	C1308.382568,492.971497 1306.363892,480.227386 1297.779907,469.204498 
	C1291.648926,461.331512 1283.874023,455.625366 1274.481689,452.139130 
	C1262.347290,447.635040 1249.983643,444.200836 1236.978027,443.393555 
	C1228.715210,442.880646 1220.419800,441.244171 1212.221436,441.675415 
	C1194.232300,442.621490 1176.287842,444.479462 1158.339844,446.123322 
	C1145.478027,447.301331 1132.637573,448.716675 1119.792358,450.070129 
	C1116.750366,450.390656 1113.402832,449.929260 1112.139038,454.098602 
	C1110.790405,458.548340 1111.731445,461.811096 1114.900024,465.387878 
	C1123.324829,474.897797 1128.481201,486.109222 1128.221069,498.998077 
	C1128.075684,506.203400 1126.674194,513.416199 1125.449341,520.558838 
	C1123.832886,529.982544 1121.881470,539.350281 1119.982178,548.723450 
	C1118.901855,554.054932 1117.717651,559.368530 1116.439697,564.656250 
	C1114.079834,574.421875 1111.539917,584.144409 1109.223633,593.920044 
	C1107.738525,600.186890 1106.575928,606.529480 1105.168213,612.815491 
	C1102.864990,623.099731 1100.354980,633.339172 1098.171021,643.648071 
	C1096.567139,651.218689 1095.445068,658.890259 1093.924683,666.480042 
	C1092.470581,673.738770 1090.556641,680.910400 1089.261353,688.194397 
	C1088.188965,694.225037 1088.058228,700.429871 1086.869873,706.430725 
	C1086.091187,710.363281 1086.752441,712.936462 1091.307739,714.731567 
M2337.627686,479.139526 
	C2337.905273,476.509491 2338.061768,473.859985 2338.481689,471.252869 
	C2340.319824,459.841034 2340.695312,448.491028 2337.672607,437.184723 
	C2336.934082,434.422394 2335.837646,432.855042 2332.592285,433.172058 
	C2322.709961,434.137360 2312.750000,434.477325 2302.927246,435.835297 
	C2293.459717,437.144135 2284.108887,439.337952 2274.740234,441.302368 
	C2270.519531,442.187286 2268.216064,444.028778 2268.122803,449.382812 
	C2267.863037,464.300964 2267.026367,479.247040 2265.536377,494.093628 
	C2264.369385,505.721375 2262.065918,517.250488 2259.916992,528.758057 
	C2258.739502,535.064392 2257.008545,541.288879 2255.097656,547.416443 
	C2254.761963,548.493835 2252.148193,549.730713 2250.853760,549.485291 
	C2245.894531,548.544739 2241.020508,547.112183 2236.157227,545.715027 
	C2217.003418,540.212708 2199.180664,544.208313 2182.333252,553.658997 
	C2171.255615,559.873108 2163.084717,569.473206 2156.291992,579.879639 
	C2151.390381,587.388733 2147.127686,595.679382 2144.492188,604.212097 
	C2141.099609,615.194153 2138.378418,626.685791 2137.634521,638.105530 
	C2136.747314,651.728516 2135.323242,665.737549 2140.225342,679.104492 
	C2142.536133,685.405640 2144.009521,692.500122 2147.949951,697.632141 
	C2163.911865,718.420959 2186.015625,721.114563 2208.646973,713.734192 
	C2217.780273,710.755737 2226.155029,705.497375 2235.025146,701.619812 
	C2236.351318,701.040039 2239.420898,701.764832 2240.131348,702.877380 
	C2246.752197,713.249084 2256.616211,717.558044 2268.280518,717.462585 
	C2275.461670,717.403809 2282.828125,716.377808 2289.760742,714.494690 
	C2304.094727,710.601135 2317.203613,703.859619 2329.172363,694.996216 
	C2331.627441,693.178223 2333.086182,691.126831 2331.843018,687.792419 
	C2330.459717,684.083008 2329.805176,680.062134 2328.099365,676.531433 
	C2327.363037,675.008118 2324.754639,673.475464 2323.048340,673.531067 
	C2319.805908,673.636841 2316.536865,674.685242 2313.394775,675.700500 
	C2308.377930,677.321411 2306.102783,675.997253 2305.715088,670.745239 
	C2304.494873,654.214233 2306.844971,637.891479 2309.258301,621.654785 
	C2311.094971,609.296570 2314.270508,597.140564 2316.734131,584.871277 
	C2319.007568,573.548035 2321.023438,562.172668 2323.342041,550.859070 
	C2325.728271,539.217651 2328.483154,527.651184 2330.819092,516.000244 
	C2333.217773,504.037994 2335.304199,492.013214 2337.627686,479.139526 
M2465.286865,524.775452 
	C2463.596924,533.265198 2461.907227,541.754944 2460.212646,550.268494 
	C2450.503906,547.942505 2442.010498,545.187195 2433.302490,543.975403 
	C2416.519043,541.639954 2400.773193,545.407288 2386.404785,554.449463 
	C2373.920166,562.306152 2364.530273,573.187622 2357.987549,586.202576 
	C2353.127686,595.870117 2348.323486,605.892090 2345.792480,616.314270 
	C2343.160889,627.149597 2342.984131,638.636780 2342.297363,649.873352 
	C2341.575439,661.683350 2342.358398,673.554626 2346.349121,684.744019 
	C2353.410889,704.543945 2368.451172,715.197998 2388.801025,717.300476 
	C2396.935791,718.140991 2405.799805,716.480347 2413.688477,713.951477 
	C2422.701660,711.062073 2431.007812,705.956970 2439.601074,701.772644 
	C2442.035645,700.587219 2443.936523,699.773376 2445.611084,703.175659 
	C2450.094727,712.283447 2459.061768,715.383118 2467.845215,717.359314 
	C2477.390625,719.506897 2486.965576,716.206177 2496.234375,713.958801 
	C2508.984619,710.867249 2520.435059,704.515503 2531.369141,697.356873 
	C2535.080078,694.927002 2539.320068,692.599426 2536.809570,686.721558 
	C2535.445801,683.528625 2534.945068,679.932922 2533.352783,676.886047 
	C2532.506592,675.267395 2530.098633,673.367126 2528.505127,673.460571 
	C2524.942871,673.669434 2521.125244,674.441833 2518.009277,676.104492 
	C2514.140869,678.168762 2512.717773,676.142517 2511.543213,673.413208 
	C2510.851318,671.805786 2510.771240,669.850830 2510.756104,668.049438 
	C2510.609619,650.419678 2512.347168,633.032043 2516.404297,615.806641 
	C2518.854736,605.403137 2519.902588,594.677368 2521.908936,584.158997 
	C2524.165039,572.331299 2526.804199,560.576843 2529.251953,548.785339 
	C2531.772461,536.643250 2534.485352,524.535461 2536.705322,512.338318 
	C2539.157471,498.866547 2541.008057,485.286194 2543.377197,471.798218 
	C2545.413086,460.209564 2545.772949,448.694458 2542.690918,437.272766 
	C2542.275879,435.734070 2540.549805,433.508026 2539.298340,433.416962 
	C2534.000488,433.031433 2528.543457,432.664398 2523.343994,433.512817 
	C2510.151367,435.665527 2497.080322,438.553009 2483.932861,440.996826 
	C2473.948730,442.852631 2474.060059,442.751770 2473.954346,452.655182 
	C2473.841553,463.242920 2474.161377,473.726288 2471.637207,484.326965 
	C2468.551270,497.285706 2467.417236,510.709167 2465.286865,524.775452 
M2563.235352,558.900208 
	C2566.908936,575.200806 2563.660156,591.093994 2560.375000,606.977600 
	C2559.072021,613.277954 2557.574951,619.538818 2556.317871,625.847900 
	C2555.093506,631.991760 2554.443848,638.273315 2552.869873,644.319519 
	C2549.334229,657.900635 2546.757568,671.606812 2548.453613,685.626892 
	C2549.398438,693.436035 2552.353027,700.801270 2559.099121,705.726990 
	C2564.774658,709.871155 2570.885254,712.095093 2578.230713,713.037048 
	C2591.915527,714.791870 2604.542969,711.491577 2617.214111,707.903320 
	C2624.437012,705.857849 2631.281738,702.475403 2638.496094,699.615967 
	C2639.005127,708.339111 2637.772705,714.914734 2629.946533,717.125061 
	C2619.532715,720.066284 2609.006592,722.787598 2598.893799,726.577576 
	C2582.816162,732.602905 2567.888184,739.993896 2563.739502,759.420593 
	C2562.162109,766.806335 2562.915527,773.476501 2566.423584,779.480286 
	C2571.609863,788.356079 2579.788818,792.839172 2590.079590,795.423340 
	C2602.340576,798.502319 2614.053467,798.109009 2625.926025,795.189575 
	C2646.196045,790.205078 2661.218262,777.554688 2673.451172,761.316284 
	C2685.454102,745.382935 2692.485107,726.826050 2699.171143,708.350403 
	C2703.845215,695.434387 2706.696045,681.804993 2709.670654,668.341675 
	C2713.081787,652.901062 2715.892822,637.320740 2718.659424,621.746826 
	C2720.877930,609.259827 2722.774902,596.711060 2724.564209,584.154053 
	C2726.121826,573.223145 2727.301270,562.238892 2728.708496,551.286011 
	C2729.103516,548.211182 2728.094482,546.247192 2724.818115,546.379333 
	C2717.360107,546.679749 2709.862305,546.783081 2702.468750,547.688477 
	C2693.145508,548.830261 2683.879883,550.532776 2674.651855,552.316650 
	C2670.789062,553.063354 2666.849854,554.194153 2663.406738,556.020142 
	C2661.555908,557.001648 2659.838623,559.692810 2659.503906,561.837769 
	C2657.488281,574.752869 2655.912598,587.736206 2654.145752,600.690735 
	C2652.558105,612.331238 2650.968506,623.971985 2649.276367,635.597534 
	C2648.037354,644.108643 2646.100586,652.556152 2645.468506,661.105469 
	C2644.976318,667.765686 2643.833740,672.869568 2635.966064,673.327026 
	C2635.651855,673.345337 2635.358154,673.596436 2635.040527,673.691284 
	C2626.058105,676.375183 2618.986816,671.710510 2619.914551,662.609070 
	C2621.134033,650.645813 2623.436035,638.771545 2625.710693,626.943359 
	C2628.077881,614.635010 2631.030762,602.440369 2633.588867,590.167053 
	C2634.359375,586.470459 2635.006348,582.687561 2635.118652,578.926636 
	C2635.383545,570.053650 2635.733398,561.141052 2635.150635,552.303711 
	C2634.879639,548.187988 2631.458008,545.781555 2626.806152,546.315613 
	C2620.891113,546.994690 2614.946045,547.444092 2609.051514,548.262024 
	C2598.096924,549.782166 2587.082764,551.080444 2576.273438,553.335327 
	C2571.920410,554.243469 2566.446533,553.304626 2563.235352,558.900208 
M1937.003174,699.325073 
	C1940.305542,704.473022 1943.401733,709.742371 1949.195312,712.691711 
	C1964.381226,720.422180 1980.017334,718.307251 1995.231567,713.782593 
	C2005.260498,710.800049 2014.556152,705.405151 2024.309448,701.405701 
	C2026.846924,700.365112 2030.161499,699.015320 2032.085571,702.928528 
	C2036.888062,712.695251 2046.090820,715.830200 2055.653564,717.475708 
	C2065.646240,719.195190 2075.275146,715.508545 2084.829346,713.183838 
	C2091.847656,711.476074 2098.692627,708.710693 2105.287842,705.700439 
	C2112.522217,702.398315 2119.475098,698.431458 2126.318115,694.363464 
	C2127.549316,693.631592 2128.489502,690.804626 2128.122803,689.294922 
	C2127.071289,684.964294 2125.234619,680.828552 2123.793701,676.586670 
	C2122.708496,673.391907 2120.368652,672.645020 2117.455566,673.357849 
	C2113.132324,674.415649 2108.899902,675.885925 2104.540527,676.720886 
	C2103.496094,676.920898 2101.113770,675.390686 2101.041504,674.516235 
	C2100.700439,670.386292 2100.353516,666.098450 2101.095703,662.066956 
	C2103.359863,649.762573 2106.270508,637.578491 2108.653564,625.294067 
	C2111.135986,612.496155 2113.433350,599.658508 2115.558594,586.796387 
	C2117.468506,575.237793 2119.037598,563.622925 2120.751709,552.032043 
	C2121.307861,548.270996 2120.418945,545.983887 2115.875244,546.071899 
	C2097.787109,546.422302 2079.676514,545.871643 2061.742188,549.268677 
	C2051.251465,551.255859 2049.587402,552.795227 2049.294434,563.701843 
	C2049.205078,567.032288 2049.557861,570.434998 2048.998535,573.682251 
	C2046.052979,590.778931 2043.008667,607.861023 2039.743896,624.899353 
	C2037.348267,637.402161 2034.687500,649.858826 2031.860840,662.271301 
	C2031.116211,665.541077 2030.158691,670.085266 2027.821777,671.381592 
	C2023.567871,673.741394 2018.263062,674.648010 2013.294312,675.153198 
	C2008.378418,675.652954 2004.072021,670.502441 2004.953735,665.649719 
	C2006.488892,657.198486 2008.184448,648.761414 2010.239746,640.423584 
	C2012.651489,630.639587 2015.839966,621.041870 2018.104492,611.227905 
	C2020.733643,599.832642 2022.699097,588.285034 2025.002563,576.813599 
	C2026.805054,567.836426 2026.259399,558.940186 2023.673096,550.245422 
	C2023.202393,548.662903 2020.840332,546.614624 2019.282715,546.554382 
	C2010.633301,546.219849 2001.902100,545.790649 1993.312744,546.600464 
	C1978.337769,548.012268 1963.426880,550.175110 1948.536743,552.348938 
	C1946.009277,552.717957 1942.673096,554.129944 1941.568115,556.101257 
	C1939.943726,558.999451 1941.399170,562.109375 1943.739502,565.087646 
	C1947.755493,570.198425 1953.559814,575.009094 1953.004028,582.161743 
	C1952.283081,591.439819 1950.667725,600.703491 1948.701538,609.814514 
	C1946.650635,619.316956 1943.389404,628.555664 1941.269287,638.046326 
	C1938.754395,649.303223 1936.686890,660.672180 1934.814209,672.056458 
	C1933.344116,680.994080 1933.970947,689.920715 1937.003174,699.325073 
M1428.855225,646.308044 
	C1438.754272,642.200134 1448.883179,638.840454 1458.049561,632.853333 
	C1475.986206,621.137695 1485.202759,605.256470 1482.394287,583.839111 
	C1481.531372,577.257812 1478.601929,570.182922 1474.547119,564.934937 
	C1464.373413,551.768494 1449.274780,546.642639 1433.480835,544.482361 
	C1424.540161,543.259399 1415.285767,543.952087 1406.192627,544.303101 
	C1389.781250,544.936707 1374.687378,550.403137 1361.013916,559.091431 
	C1347.900269,567.424072 1337.113647,578.096680 1329.808472,592.377930 
	C1323.019165,605.650696 1319.243774,619.515686 1318.465820,634.137695 
	C1317.752319,647.546753 1318.125000,661.020630 1322.322754,674.036377 
	C1325.024170,682.412048 1328.775269,690.252197 1334.753296,696.795654 
	C1344.251709,707.192871 1356.259155,712.221558 1369.920410,715.694336 
	C1384.698486,719.450867 1398.790527,716.864563 1412.663208,714.107117 
	C1423.107300,712.031128 1432.764404,705.937012 1442.733276,701.544006 
	C1452.802368,697.106750 1460.885254,689.916687 1468.800293,682.504272 
	C1471.094360,680.355835 1471.646606,678.119263 1469.636230,675.496460 
	C1467.020264,672.083740 1464.792603,668.252563 1461.664673,665.407593 
	C1460.233765,664.106018 1456.336426,663.640686 1454.781128,664.661072 
	C1445.816162,670.542786 1436.097290,674.548584 1425.744385,676.769897 
	C1419.332886,678.145447 1412.654175,678.823303 1406.165771,676.369995 
	C1398.398193,673.433167 1394.947388,667.132874 1392.449585,659.747498 
	C1391.183594,656.003967 1392.227173,654.486023 1395.736572,653.721436 
	C1406.532837,651.369385 1417.315918,648.956177 1428.855225,646.308044 
M1502.373779,640.942871 
	C1502.112793,642.748108 1501.945312,644.572693 1501.576050,646.355469 
	C1498.890991,659.318054 1495.527344,672.169373 1496.192627,685.608765 
	C1496.794067,697.758179 1502.705078,706.728455 1513.001343,712.511963 
	C1527.396973,720.597961 1542.710327,718.347168 1557.484253,714.104553 
	C1567.039795,711.360474 1576.196411,706.886353 1585.104980,702.349548 
	C1591.062500,699.315735 1596.270752,694.810364 1601.777710,690.988892 
	C1599.040527,685.534668 1596.556274,680.843689 1594.315674,676.039001 
	C1592.457153,672.053894 1590.065918,671.887878 1586.262451,673.616333 
	C1581.958984,675.571960 1577.307129,676.890686 1572.686035,677.968567 
	C1569.940063,678.609070 1567.601685,677.339417 1567.920776,673.924377 
	C1568.936646,663.049377 1569.520752,652.095398 1571.294434,641.340576 
	C1573.140503,630.147339 1576.247925,619.165833 1578.670166,608.062561 
	C1580.814575,598.232117 1582.646851,588.330933 1584.982300,578.548096 
	C1585.269531,577.345215 1587.882080,575.802490 1589.299561,575.913757 
	C1596.874390,576.508423 1604.408691,577.606995 1611.963867,578.471191 
	C1615.371216,578.860962 1618.121216,578.320740 1619.283203,574.289917 
	C1620.780884,569.094971 1623.131470,564.129150 1624.415649,558.893188 
	C1626.471313,550.512146 1624.518433,548.285339 1616.108521,548.281433 
	C1609.110107,548.278137 1602.111450,548.260498 1595.113159,548.287781 
	C1592.638306,548.297424 1590.627319,547.736511 1591.061035,544.692871 
	C1592.111084,537.325439 1592.936401,529.900574 1594.495483,522.636902 
	C1596.848267,511.674561 1595.906616,500.911896 1593.460449,490.189178 
	C1593.195435,489.027557 1591.342651,487.493317 1590.140381,487.412598 
	C1585.834473,487.123474 1581.389038,486.802917 1577.181030,487.543823 
	C1562.206909,490.180481 1547.315796,493.286072 1532.379517,496.141998 
	C1522.060181,498.115112 1522.049561,498.062012 1522.047974,508.495789 
	C1522.046143,519.826599 1521.969849,531.158142 1522.084717,542.487732 
	C1522.126465,546.609253 1520.826782,548.578186 1516.294434,548.362244 
	C1509.644409,548.045471 1502.959106,548.490601 1496.306396,548.203979 
	C1492.649902,548.046448 1490.900024,549.533691 1490.792114,552.895996 
	C1490.549316,560.460693 1490.351074,568.034668 1490.468506,575.599731 
	C1490.527222,579.392395 1493.355591,579.966553 1496.549438,579.583557 
	C1501.810303,578.952698 1507.076904,578.368347 1512.344727,577.796265 
	C1515.492310,577.454529 1517.286621,578.896912 1516.889038,582.067932 
	C1516.480713,585.325134 1515.692993,588.548218 1514.884766,591.739014 
	C1512.741211,600.201904 1510.476074,608.633911 1508.299438,617.088562 
	C1506.325317,624.756531 1504.404175,632.438110 1502.373779,640.942871 
z"/>
<path fill="#59B1BD" opacity="1.000000" stroke="none" 
	d="
M347.000000,281.309387 
	C541.271606,281.309662 735.043213,281.309662 929.166504,281.309662 
	C929.166504,481.023346 929.166504,680.216125 929.166504,879.771606 
	C723.121887,879.771606 517.403259,879.771606 311.302368,879.771606 
	C311.302368,680.569153 311.302368,481.354309 311.302368,281.309143 
	C322.993378,281.309143 334.746674,281.309143 347.000000,281.309387 
M748.411804,386.829712 
	C743.407959,389.005798 738.733154,388.064972 733.462402,386.850952 
	C726.532837,385.254944 718.982422,384.532104 712.229736,388.973663 
	C709.274719,390.917297 705.967896,392.326202 702.170410,394.319366 
	C702.170410,392.265900 701.934387,390.820221 702.215698,389.483368 
	C702.989380,385.806152 704.199829,382.212860 704.843567,378.517731 
	C706.809143,367.234863 701.096863,355.096497 691.146973,349.384033 
	C687.002380,347.004517 683.421143,344.611603 680.903564,340.007385 
	C673.112183,325.758362 654.797363,320.259766 641.066406,326.394012 
	C638.846680,327.385712 635.496826,325.940338 632.692749,325.479553 
	C631.764832,325.327026 630.945984,324.533600 630.016785,324.363007 
	C614.997437,321.606262 601.210754,328.985291 594.609192,342.968048 
	C593.802551,344.676666 591.761841,345.892822 590.114868,347.092590 
	C587.863525,348.732544 585.501221,350.243958 583.076233,351.615387 
	C580.427673,353.113281 577.741455,354.618744 574.911621,355.703156 
	C571.274841,357.096741 567.062195,357.390411 563.829041,359.359009 
	C553.946838,365.376007 544.459839,371.993134 537.997070,382.027069 
	C537.301147,383.107544 535.608276,383.874542 534.251526,384.139343 
	C530.086426,384.952240 525.829651,386.121521 521.663330,385.933960 
	C512.303284,385.512634 504.105835,388.827240 496.036407,392.741150 
	C483.542542,398.801117 474.756592,408.790680 470.624573,421.668823 
	C467.691986,430.808624 467.385315,440.843933 466.402374,450.529877 
	C466.017029,454.327148 464.919739,456.804596 461.717896,459.136932 
	C449.809814,467.811157 443.523529,479.840027 442.185486,494.445038 
	C441.179047,505.430847 443.675232,515.597107 448.987823,525.306519 
	C451.343506,529.611877 454.571136,533.888062 453.158844,539.582703 
	C451.537872,546.118958 450.194977,552.738647 449.060059,559.378357 
	C444.933441,583.520630 452.257507,602.668396 472.482788,616.593384 
	C477.261047,619.883240 479.782471,623.316956 479.093140,629.229248 
	C478.652924,633.004883 478.915222,636.892273 479.152100,640.711670 
	C480.043976,655.091675 485.163116,667.271240 497.165222,676.136963 
	C499.155090,677.606750 500.449799,680.650208 501.088226,683.210266 
	C504.282135,696.017395 506.735931,709.021912 510.294006,721.720520 
	C512.316467,728.938477 516.308472,735.580383 518.795715,742.697632 
	C523.582642,756.395691 531.698608,768.203796 540.988403,778.838196 
	C553.675110,793.361145 568.714539,805.196594 587.676208,811.156189 
	C598.936829,814.695312 610.377014,817.098511 622.123657,817.483398 
	C627.495178,817.659363 632.904236,816.313293 638.312134,815.837341 
	C649.537842,814.849182 660.102905,811.200073 670.040649,806.403931 
	C677.506653,802.800659 684.657104,797.889160 690.756592,792.267456 
	C699.172913,784.510559 707.639832,776.318298 713.933350,766.877991 
	C721.104492,756.121338 726.536560,744.048889 731.545349,732.055847 
	C735.644897,722.239868 738.019897,711.702942 741.148499,701.482300 
	C744.417847,690.801575 743.564148,679.218140 754.525818,670.764343 
	C763.689148,663.697510 766.671387,651.657410 767.005005,639.422668 
	C767.222717,631.436584 766.871338,623.356995 772.432678,615.854492 
	C778.049622,608.276917 781.180420,598.898499 785.789185,590.522949 
	C796.029602,571.912659 799.941833,552.207703 796.590820,531.191650 
	C795.686829,525.522217 794.309570,519.925232 793.065247,514.313721 
	C791.755493,508.407074 790.344849,502.522797 788.987427,496.668243 
	C805.816711,489.994476 811.727844,470.083405 805.350525,454.911987 
	C804.549805,453.007080 804.515503,450.000366 805.483398,448.258331 
	C811.706116,437.058289 805.080933,417.061554 794.898193,411.824036 
	C789.086487,408.834747 784.778015,404.886963 781.834167,399.036865 
	C780.554688,396.494324 778.322571,394.217499 776.044495,392.429840 
	C768.115356,386.207489 758.972778,384.908051 748.411804,386.829712 
z"/>
<path fill="#56BDD3" opacity="1.000000" stroke="none" 
	d="
M1912.456543,475.744568 
	C1914.357300,483.795715 1916.716797,491.429138 1917.708618,499.236298 
	C1919.405762,512.597534 1915.973022,525.090149 1908.661743,536.327209 
	C1899.991455,549.653137 1887.794556,558.662842 1873.017700,564.382874 
	C1868.020264,566.317383 1863.214966,568.748352 1858.063477,571.068909 
	C1862.438843,572.408691 1866.596802,573.653992 1870.737061,574.954834 
	C1884.765503,579.362549 1896.550903,587.119385 1905.114746,599.142517 
	C1910.063721,606.090942 1912.471924,614.158142 1913.754395,622.642883 
	C1916.810059,642.859680 1912.739502,661.167175 1901.375610,678.353821 
	C1892.030518,692.487427 1879.332153,702.256836 1864.325439,708.799927 
	C1855.822266,712.507446 1846.258667,714.122131 1837.003662,715.665771 
	C1828.733765,717.045105 1820.186279,717.864502 1811.844727,717.407410 
	C1803.030396,716.924377 1794.261963,714.890991 1785.571045,713.069946 
	C1777.378174,711.353394 1769.318970,709.003662 1761.180542,707.016296 
	C1760.271118,706.794250 1759.153687,706.906433 1758.258179,707.220886 
	C1741.328369,713.166504 1723.905518,715.621155 1705.984253,715.029358 
	C1697.375244,714.745117 1696.038330,713.433594 1697.257202,705.191040 
	C1698.924194,693.919067 1700.241455,682.583008 1702.316772,671.387207 
	C1704.411987,660.082703 1707.332764,648.933533 1709.737305,637.683289 
	C1711.774414,628.151428 1713.396729,618.528137 1715.556396,609.025757 
	C1718.075073,597.944275 1721.069092,586.971558 1723.681519,575.910217 
	C1725.310913,569.011108 1726.623169,562.036926 1728.065430,555.093872 
	C1731.389038,539.092896 1735.057617,523.150879 1737.825684,507.054138 
	C1738.747803,501.691376 1738.073242,495.763397 1736.827026,490.395996 
	C1735.438110,484.413513 1732.861084,478.636566 1730.226440,473.040833 
	C1728.718872,469.839142 1726.379028,466.863281 1723.854248,464.347656 
	C1720.540283,461.045990 1721.003662,457.613770 1722.149658,453.775635 
	C1723.226196,450.169556 1726.076782,450.401672 1728.946655,450.130524 
	C1742.479980,448.851959 1755.992554,447.352539 1769.528320,446.102051 
	C1787.312256,444.459167 1805.090332,442.613739 1822.913086,441.594727 
	C1830.443726,441.164154 1838.080933,442.633789 1845.671753,443.210754 
	C1858.617188,444.194733 1871.037354,447.282349 1883.251709,451.694092 
	C1894.272095,455.674561 1902.866699,462.446289 1909.642212,471.802521 
	C1910.517456,473.011047 1911.413574,474.204529 1912.456543,475.744568 
M1828.957642,665.460632 
	C1834.773560,656.014526 1839.070435,645.974670 1839.079346,634.717834 
	C1839.087036,625.000610 1839.115112,615.174438 1837.692749,605.610779 
	C1836.975342,600.788086 1833.889893,595.648376 1830.431763,592.032227 
	C1821.266602,582.447998 1808.978638,583.590149 1797.190552,584.496460 
	C1795.313965,584.640869 1792.625366,587.488831 1792.081177,589.553162 
	C1788.501465,603.133057 1785.099365,616.776794 1782.241089,630.524841 
	C1779.447266,643.963074 1777.370972,657.550354 1774.976807,671.071716 
	C1773.469971,679.582153 1775.224487,681.917297 1783.915527,682.981934 
	C1785.066284,683.122864 1786.207031,683.345581 1787.357178,683.493774 
	C1803.992676,685.638977 1820.575684,680.820129 1828.957642,665.460632 
M1803.847412,535.210938 
	C1802.749023,540.223755 1801.859985,545.294678 1800.488525,550.231628 
	C1799.317627,554.446472 1801.266113,555.783752 1804.893311,555.926758 
	C1811.825439,556.200073 1817.851074,554.227173 1823.137207,549.425049 
	C1838.419067,535.542969 1844.734131,517.784180 1845.680298,497.781464 
	C1845.902588,493.080505 1844.449219,488.323608 1844.153564,483.568420 
	C1843.857788,478.810699 1841.130981,475.797058 1837.835815,472.879242 
	C1832.496826,468.152039 1826.178223,470.070648 1820.206421,470.265961 
	C1818.671021,470.316223 1816.224121,472.182648 1815.867676,473.627258 
	C1814.011108,481.150208 1812.654541,488.798706 1811.198975,496.417877 
	C1808.781616,509.071320 1806.421387,521.735657 1803.847412,535.210938 
z"/>
<path fill="#56BCD3" opacity="1.000000" stroke="none" 
	d="
M1090.909668,714.603088 
	C1086.752441,712.936462 1086.091187,710.363281 1086.869873,706.430725 
	C1088.058228,700.429871 1088.188965,694.225037 1089.261353,688.194397 
	C1090.556641,680.910400 1092.470581,673.738770 1093.924683,666.480042 
	C1095.445068,658.890259 1096.567139,651.218689 1098.171021,643.648071 
	C1100.354980,633.339172 1102.864990,623.099731 1105.168213,612.815491 
	C1106.575928,606.529480 1107.738525,600.186890 1109.223633,593.920044 
	C1111.539917,584.144409 1114.079834,574.421875 1116.439697,564.656250 
	C1117.717651,559.368530 1118.901855,554.054932 1119.982178,548.723450 
	C1121.881470,539.350281 1123.832886,529.982544 1125.449341,520.558838 
	C1126.674194,513.416199 1128.075684,506.203400 1128.221069,498.998077 
	C1128.481201,486.109222 1123.324829,474.897797 1114.900024,465.387878 
	C1111.731445,461.811096 1110.790405,458.548340 1112.139038,454.098602 
	C1113.402832,449.929260 1116.750366,450.390656 1119.792358,450.070129 
	C1132.637573,448.716675 1145.478027,447.301331 1158.339844,446.123322 
	C1176.287842,444.479462 1194.232300,442.621490 1212.221436,441.675415 
	C1220.419800,441.244171 1228.715210,442.880646 1236.978027,443.393555 
	C1249.983643,444.200836 1262.347290,447.635040 1274.481689,452.139130 
	C1283.874023,455.625366 1291.648926,461.331512 1297.779907,469.204498 
	C1306.363892,480.227386 1308.382568,492.971497 1307.931641,506.591339 
	C1307.190308,528.983948 1295.733521,545.106201 1277.932739,556.779480 
	C1269.233154,562.484436 1258.888184,565.679199 1249.296753,570.029236 
	C1248.907227,570.205811 1248.606445,570.577698 1247.970947,571.099365 
	C1252.932007,572.529602 1257.660522,573.631897 1262.204590,575.251221 
	C1276.498901,580.344788 1289.143799,588.271301 1296.755493,601.573059 
	C1305.172485,616.281982 1306.532959,632.477295 1303.345581,649.236755 
	C1298.176392,676.416321 1282.126221,694.736328 1258.043945,706.953552 
	C1248.191040,711.952026 1237.795044,714.914062 1226.818970,715.832825 
	C1218.594604,716.521301 1210.310791,717.861633 1202.135864,717.412354 
	C1193.317749,716.927795 1184.539673,714.965759 1175.847412,713.153137 
	C1167.494629,711.411255 1159.284912,708.990417 1150.981445,706.996582 
	C1149.953491,706.749817 1148.681885,707.133484 1147.614258,707.494385 
	C1129.326294,713.676697 1110.563721,716.108887 1090.909668,714.603088 
M1214.470825,671.928894 
	C1215.044067,671.326416 1215.742798,670.801697 1216.171875,670.109741 
	C1222.649780,659.659180 1228.975952,649.113708 1228.886108,636.229980 
	C1228.817261,626.352112 1229.124634,616.413330 1228.103516,606.622681 
	C1227.508057,600.913208 1225.111206,595.508545 1220.082764,591.275146 
	C1210.091919,582.863892 1198.545654,583.668640 1186.963135,584.551331 
	C1185.188232,584.686646 1182.631470,587.365967 1182.126343,589.308228 
	C1178.555054,603.043152 1175.109985,616.827820 1172.240723,630.723816 
	C1169.234253,645.284668 1166.955444,659.994934 1164.264160,674.622498 
	C1163.697876,677.699707 1164.325928,679.941895 1167.504517,680.872131 
	C1170.818481,681.841980 1174.131226,683.076111 1177.527466,683.460327 
	C1191.197754,685.006836 1204.015259,683.363037 1214.470825,671.928894 
M1199.049683,555.634460 
	C1202.474121,554.533875 1206.532471,554.241455 1209.186768,552.159241 
	C1214.223022,548.208496 1219.306763,543.809753 1222.857056,538.571106 
	C1232.593140,524.205078 1237.103149,507.989655 1235.631470,490.643799 
	C1235.036499,483.631317 1234.029785,476.289459 1226.499023,471.853302 
	C1221.287964,468.783539 1216.184814,470.514252 1211.038818,470.052826 
	C1207.906982,469.771973 1206.069092,470.927582 1205.505249,474.248596 
	C1203.791626,484.340851 1201.912964,494.405060 1200.103149,504.481049 
	C1198.937134,510.972076 1197.934204,517.497009 1196.581177,523.948669 
	C1194.615112,533.323059 1192.306030,542.626404 1190.426880,552.016846 
	C1190.228149,553.010071 1191.688110,554.989746 1192.807129,555.435242 
	C1194.395508,556.067688 1196.381958,555.700623 1199.049683,555.634460 
z"/>
<path fill="#56BCD3" opacity="1.000000" stroke="none" 
	d="
M2337.577637,479.577667 
	C2335.304199,492.013214 2333.217773,504.037994 2330.819092,516.000244 
	C2328.483154,527.651184 2325.728271,539.217651 2323.342041,550.859070 
	C2321.023438,562.172668 2319.007568,573.548035 2316.734131,584.871277 
	C2314.270508,597.140564 2311.094971,609.296570 2309.258301,621.654785 
	C2306.844971,637.891479 2304.494873,654.214233 2305.715088,670.745239 
	C2306.102783,675.997253 2308.377930,677.321411 2313.394775,675.700500 
	C2316.536865,674.685242 2319.805908,673.636841 2323.048340,673.531067 
	C2324.754639,673.475464 2327.363037,675.008118 2328.099365,676.531433 
	C2329.805176,680.062134 2330.459717,684.083008 2331.843018,687.792419 
	C2333.086182,691.126831 2331.627441,693.178223 2329.172363,694.996216 
	C2317.203613,703.859619 2304.094727,710.601135 2289.760742,714.494690 
	C2282.828125,716.377808 2275.461670,717.403809 2268.280518,717.462585 
	C2256.616211,717.558044 2246.752197,713.249084 2240.131348,702.877380 
	C2239.420898,701.764832 2236.351318,701.040039 2235.025146,701.619812 
	C2226.155029,705.497375 2217.780273,710.755737 2208.646973,713.734192 
	C2186.015625,721.114563 2163.911865,718.420959 2147.949951,697.632141 
	C2144.009521,692.500122 2142.536133,685.405640 2140.225342,679.104492 
	C2135.323242,665.737549 2136.747314,651.728516 2137.634521,638.105530 
	C2138.378418,626.685791 2141.099609,615.194153 2144.492188,604.212097 
	C2147.127686,595.679382 2151.390381,587.388733 2156.291992,579.879639 
	C2163.084717,569.473206 2171.255615,559.873108 2182.333252,553.658997 
	C2199.180664,544.208313 2217.003418,540.212708 2236.157227,545.715027 
	C2241.020508,547.112183 2245.894531,548.544739 2250.853760,549.485291 
	C2252.148193,549.730713 2254.761963,548.493835 2255.097656,547.416443 
	C2257.008545,541.288879 2258.739502,535.064392 2259.916992,528.758057 
	C2262.065918,517.250488 2264.369385,505.721375 2265.536377,494.093628 
	C2267.026367,479.247040 2267.863037,464.300964 2268.122803,449.382812 
	C2268.216064,444.028778 2270.519531,442.187286 2274.740234,441.302368 
	C2284.108887,439.337952 2293.459717,437.144135 2302.927246,435.835297 
	C2312.750000,434.477325 2322.709961,434.137360 2332.592285,433.172058 
	C2335.837646,432.855042 2336.934082,434.422394 2337.672607,437.184723 
	C2340.695312,448.491028 2340.319824,459.841034 2338.481689,471.252869 
	C2338.061768,473.859985 2337.905273,476.509491 2337.577637,479.577667 
M2241.636230,619.248779 
	C2243.937012,607.931091 2246.409668,596.643921 2248.427246,585.276062 
	C2248.990479,582.103699 2250.792725,576.863098 2246.688477,575.980530 
	C2241.487061,574.861877 2234.177246,574.330750 2230.573242,577.137512 
	C2225.021240,581.461609 2220.408691,588.320618 2217.994629,595.037659 
	C2214.241455,605.479797 2211.659180,616.593933 2210.436279,627.628845 
	C2208.996338,640.621094 2208.931152,653.863647 2209.599609,666.929626 
	C2209.790527,670.665283 2213.878906,675.844360 2217.455811,677.369507 
	C2222.510010,679.524475 2228.676270,678.379639 2233.373047,674.335510 
	C2234.152344,673.664612 2234.583008,672.322144 2234.728516,671.230469 
	C2235.230957,667.461853 2235.434326,663.653503 2235.933594,659.884277 
	C2237.691650,646.610229 2239.525635,633.346191 2241.636230,619.248779 
z"/>
<path fill="#56BCD3" opacity="1.000000" stroke="none" 
	d="
M2465.363037,524.353516 
	C2467.417236,510.709167 2468.551270,497.285706 2471.637207,484.326965 
	C2474.161377,473.726288 2473.841553,463.242920 2473.954346,452.655182 
	C2474.060059,442.751770 2473.948730,442.852631 2483.932861,440.996826 
	C2497.080322,438.553009 2510.151367,435.665527 2523.343994,433.512817 
	C2528.543457,432.664398 2534.000488,433.031433 2539.298340,433.416962 
	C2540.549805,433.508026 2542.275879,435.734070 2542.690918,437.272766 
	C2545.772949,448.694458 2545.413086,460.209564 2543.377197,471.798218 
	C2541.008057,485.286194 2539.157471,498.866547 2536.705322,512.338318 
	C2534.485352,524.535461 2531.772461,536.643250 2529.251953,548.785339 
	C2526.804199,560.576843 2524.165039,572.331299 2521.908936,584.158997 
	C2519.902588,594.677368 2518.854736,605.403137 2516.404297,615.806641 
	C2512.347168,633.032043 2510.609619,650.419678 2510.756104,668.049438 
	C2510.771240,669.850830 2510.851318,671.805786 2511.543213,673.413208 
	C2512.717773,676.142517 2514.140869,678.168762 2518.009277,676.104492 
	C2521.125244,674.441833 2524.942871,673.669434 2528.505127,673.460571 
	C2530.098633,673.367126 2532.506592,675.267395 2533.352783,676.886047 
	C2534.945068,679.932922 2535.445801,683.528625 2536.809570,686.721558 
	C2539.320068,692.599426 2535.080078,694.927002 2531.369141,697.356873 
	C2520.435059,704.515503 2508.984619,710.867249 2496.234375,713.958801 
	C2486.965576,716.206177 2477.390625,719.506897 2467.845215,717.359314 
	C2459.061768,715.383118 2450.094727,712.283447 2445.611084,703.175659 
	C2443.936523,699.773376 2442.035645,700.587219 2439.601074,701.772644 
	C2431.007812,705.956970 2422.701660,711.062073 2413.688477,713.951477 
	C2405.799805,716.480347 2396.935791,718.140991 2388.801025,717.300476 
	C2368.451172,715.197998 2353.410889,704.543945 2346.349121,684.744019 
	C2342.358398,673.554626 2341.575439,661.683350 2342.297363,649.873352 
	C2342.984131,638.636780 2343.160889,627.149597 2345.792480,616.314270 
	C2348.323486,605.892090 2353.127686,595.870117 2357.987549,586.202576 
	C2364.530273,573.187622 2373.920166,562.306152 2386.404785,554.449463 
	C2400.773193,545.407288 2416.519043,541.639954 2433.302490,543.975403 
	C2442.010498,545.187195 2450.503906,547.942505 2460.212646,550.268494 
	C2461.907227,541.754944 2463.596924,533.265198 2465.363037,524.353516 
M2414.334961,667.659790 
	C2414.788574,668.725220 2415.124023,669.861206 2415.714111,670.844910 
	C2420.381104,678.629517 2429.975342,680.587952 2437.357422,675.131836 
	C2438.520996,674.271729 2439.584229,672.641479 2439.793457,671.233398 
	C2440.716309,665.024292 2441.107910,658.735107 2442.061523,652.531799 
	C2444.520508,636.535950 2447.145264,620.565369 2449.764404,604.594604 
	C2451.097900,596.462952 2452.688232,588.370605 2453.848877,580.215942 
	C2454.058105,578.747192 2452.814453,575.726379 2452.120361,575.689331 
	C2447.042725,575.418091 2440.479492,573.787781 2437.158691,576.280823 
	C2431.444336,580.570862 2426.062988,586.913086 2423.579102,593.533447 
	C2419.514893,604.366699 2416.850098,615.992676 2415.506104,627.507324 
	C2413.992432,640.478638 2414.593994,653.696838 2414.334961,667.659790 
z"/>
<path fill="#57BDD3" opacity="1.000000" stroke="none" 
	d="
M2563.307129,558.502686 
	C2566.446533,553.304626 2571.920410,554.243469 2576.273438,553.335327 
	C2587.082764,551.080444 2598.096924,549.782166 2609.051514,548.262024 
	C2614.946045,547.444092 2620.891113,546.994690 2626.806152,546.315613 
	C2631.458008,545.781555 2634.879639,548.187988 2635.150635,552.303711 
	C2635.733398,561.141052 2635.383545,570.053650 2635.118652,578.926636 
	C2635.006348,582.687561 2634.359375,586.470459 2633.588867,590.167053 
	C2631.030762,602.440369 2628.077881,614.635010 2625.710693,626.943359 
	C2623.436035,638.771545 2621.134033,650.645813 2619.914551,662.609070 
	C2618.986816,671.710510 2626.058105,676.375183 2635.040527,673.691284 
	C2635.358154,673.596436 2635.651855,673.345337 2635.966064,673.327026 
	C2643.833740,672.869568 2644.976318,667.765686 2645.468506,661.105469 
	C2646.100586,652.556152 2648.037354,644.108643 2649.276367,635.597534 
	C2650.968506,623.971985 2652.558105,612.331238 2654.145752,600.690735 
	C2655.912598,587.736206 2657.488281,574.752869 2659.503906,561.837769 
	C2659.838623,559.692810 2661.555908,557.001648 2663.406738,556.020142 
	C2666.849854,554.194153 2670.789062,553.063354 2674.651855,552.316650 
	C2683.879883,550.532776 2693.145508,548.830261 2702.468750,547.688477 
	C2709.862305,546.783081 2717.360107,546.679749 2724.818115,546.379333 
	C2728.094482,546.247192 2729.103516,548.211182 2728.708496,551.286011 
	C2727.301270,562.238892 2726.121826,573.223145 2724.564209,584.154053 
	C2722.774902,596.711060 2720.877930,609.259827 2718.659424,621.746826 
	C2715.892822,637.320740 2713.081787,652.901062 2709.670654,668.341675 
	C2706.696045,681.804993 2703.845215,695.434387 2699.171143,708.350403 
	C2692.485107,726.826050 2685.454102,745.382935 2673.451172,761.316284 
	C2661.218262,777.554688 2646.196045,790.205078 2625.926025,795.189575 
	C2614.053467,798.109009 2602.340576,798.502319 2590.079590,795.423340 
	C2579.788818,792.839172 2571.609863,788.356079 2566.423584,779.480286 
	C2562.915527,773.476501 2562.162109,766.806335 2563.739502,759.420593 
	C2567.888184,739.993896 2582.816162,732.602905 2598.893799,726.577576 
	C2609.006592,722.787598 2619.532715,720.066284 2629.946533,717.125061 
	C2637.772705,714.914734 2639.005127,708.339111 2638.496094,699.615967 
	C2631.281738,702.475403 2624.437012,705.857849 2617.214111,707.903320 
	C2604.542969,711.491577 2591.915527,714.791870 2578.230713,713.037048 
	C2570.885254,712.095093 2564.774658,709.871155 2559.099121,705.726990 
	C2552.353027,700.801270 2549.398438,693.436035 2548.453613,685.626892 
	C2546.757568,671.606812 2549.334229,657.900635 2552.869873,644.319519 
	C2554.443848,638.273315 2555.093506,631.991760 2556.317871,625.847900 
	C2557.574951,619.538818 2559.072021,613.277954 2560.375000,606.977600 
	C2563.660156,591.093994 2566.908936,575.200806 2563.307129,558.502686 
M2607.572021,767.147461 
	C2619.235596,762.767334 2624.671631,752.557800 2630.326660,742.620483 
	C2630.831055,741.734131 2630.443604,739.964478 2629.846680,738.985901 
	C2629.548096,738.496582 2627.775879,738.627075 2626.779053,738.889832 
	C2621.555176,740.266663 2616.317871,741.625366 2611.176514,743.274292 
	C2603.729492,745.662720 2596.416992,748.382446 2592.012695,755.567871 
	C2588.537354,761.237610 2590.793213,767.426086 2597.272949,768.556458 
	C2600.321777,769.088440 2603.666260,767.925049 2607.572021,767.147461 
z"/>
<path fill="#57BDD3" opacity="1.000000" stroke="none" 
	d="
M1936.829834,698.981323 
	C1933.970947,689.920715 1933.344116,680.994080 1934.814209,672.056458 
	C1936.686890,660.672180 1938.754395,649.303223 1941.269287,638.046326 
	C1943.389404,628.555664 1946.650635,619.316956 1948.701538,609.814514 
	C1950.667725,600.703491 1952.283081,591.439819 1953.004028,582.161743 
	C1953.559814,575.009094 1947.755493,570.198425 1943.739502,565.087646 
	C1941.399170,562.109375 1939.943726,558.999451 1941.568115,556.101257 
	C1942.673096,554.129944 1946.009277,552.717957 1948.536743,552.348938 
	C1963.426880,550.175110 1978.337769,548.012268 1993.312744,546.600464 
	C2001.902100,545.790649 2010.633301,546.219849 2019.282715,546.554382 
	C2020.840332,546.614624 2023.202393,548.662903 2023.673096,550.245422 
	C2026.259399,558.940186 2026.805054,567.836426 2025.002563,576.813599 
	C2022.699097,588.285034 2020.733643,599.832642 2018.104492,611.227905 
	C2015.839966,621.041870 2012.651489,630.639587 2010.239746,640.423584 
	C2008.184448,648.761414 2006.488892,657.198486 2004.953735,665.649719 
	C2004.072021,670.502441 2008.378418,675.652954 2013.294312,675.153198 
	C2018.263062,674.648010 2023.567871,673.741394 2027.821777,671.381592 
	C2030.158691,670.085266 2031.116211,665.541077 2031.860840,662.271301 
	C2034.687500,649.858826 2037.348267,637.402161 2039.743896,624.899353 
	C2043.008667,607.861023 2046.052979,590.778931 2048.998535,573.682251 
	C2049.557861,570.434998 2049.205078,567.032288 2049.294434,563.701843 
	C2049.587402,552.795227 2051.251465,551.255859 2061.742188,549.268677 
	C2079.676514,545.871643 2097.787109,546.422302 2115.875244,546.071899 
	C2120.418945,545.983887 2121.307861,548.270996 2120.751709,552.032043 
	C2119.037598,563.622925 2117.468506,575.237793 2115.558594,586.796387 
	C2113.433350,599.658508 2111.135986,612.496155 2108.653564,625.294067 
	C2106.270508,637.578491 2103.359863,649.762573 2101.095703,662.066956 
	C2100.353516,666.098450 2100.700439,670.386292 2101.041504,674.516235 
	C2101.113770,675.390686 2103.496094,676.920898 2104.540527,676.720886 
	C2108.899902,675.885925 2113.132324,674.415649 2117.455566,673.357849 
	C2120.368652,672.645020 2122.708496,673.391907 2123.793701,676.586670 
	C2125.234619,680.828552 2127.071289,684.964294 2128.122803,689.294922 
	C2128.489502,690.804626 2127.549316,693.631592 2126.318115,694.363464 
	C2119.475098,698.431458 2112.522217,702.398315 2105.287842,705.700439 
	C2098.692627,708.710693 2091.847656,711.476074 2084.829346,713.183838 
	C2075.275146,715.508545 2065.646240,719.195190 2055.653564,717.475708 
	C2046.090820,715.830200 2036.888062,712.695251 2032.085571,702.928528 
	C2030.161499,699.015320 2026.846924,700.365112 2024.309448,701.405701 
	C2014.556152,705.405151 2005.260498,710.800049 1995.231567,713.782593 
	C1980.017334,718.307251 1964.381226,720.422180 1949.195312,712.691711 
	C1943.401733,709.742371 1940.305542,704.473022 1936.829834,698.981323 
z"/>
<path fill="#57BDD3" opacity="1.000000" stroke="none" 
	d="
M1428.479736,646.437378 
	C1417.315918,648.956177 1406.532837,651.369385 1395.736572,653.721436 
	C1392.227173,654.486023 1391.183594,656.003967 1392.449585,659.747498 
	C1394.947388,667.132874 1398.398193,673.433167 1406.165771,676.369995 
	C1412.654175,678.823303 1419.332886,678.145447 1425.744385,676.769897 
	C1436.097290,674.548584 1445.816162,670.542786 1454.781128,664.661072 
	C1456.336426,663.640686 1460.233765,664.106018 1461.664673,665.407593 
	C1464.792603,668.252563 1467.020264,672.083740 1469.636230,675.496460 
	C1471.646606,678.119263 1471.094360,680.355835 1468.800293,682.504272 
	C1460.885254,689.916687 1452.802368,697.106750 1442.733276,701.544006 
	C1432.764404,705.937012 1423.107300,712.031128 1412.663208,714.107117 
	C1398.790527,716.864563 1384.698486,719.450867 1369.920410,715.694336 
	C1356.259155,712.221558 1344.251709,707.192871 1334.753296,696.795654 
	C1328.775269,690.252197 1325.024170,682.412048 1322.322754,674.036377 
	C1318.125000,661.020630 1317.752319,647.546753 1318.465820,634.137695 
	C1319.243774,619.515686 1323.019165,605.650696 1329.808472,592.377930 
	C1337.113647,578.096680 1347.900269,567.424072 1361.013916,559.091431 
	C1374.687378,550.403137 1389.781250,544.936707 1406.192627,544.303101 
	C1415.285767,543.952087 1424.540161,543.259399 1433.480835,544.482361 
	C1449.274780,546.642639 1464.373413,551.768494 1474.547119,564.934937 
	C1478.601929,570.182922 1481.531372,577.257812 1482.394287,583.839111 
	C1485.202759,605.256470 1475.986206,621.137695 1458.049561,632.853333 
	C1448.883179,638.840454 1438.754272,642.200134 1428.479736,646.437378 
M1393.254517,597.776245 
	C1391.876465,606.033447 1390.426514,614.279419 1389.146362,622.551758 
	C1388.316650,627.913452 1389.561401,628.918335 1394.629639,627.001160 
	C1396.271606,626.380066 1398.047363,625.440369 1399.129761,624.125977 
	C1404.485352,617.622009 1410.000854,611.197693 1414.743408,604.255737 
	C1419.518799,597.265503 1422.679321,589.510498 1421.977173,580.641907 
	C1421.450195,573.985718 1417.909546,570.803833 1411.682007,572.348083 
	C1409.555420,572.875366 1407.451660,574.352539 1405.831299,575.909607 
	C1399.750977,581.752625 1396.339722,589.229370 1393.254517,597.776245 
z"/>
<path fill="#57BDD3" opacity="1.000000" stroke="none" 
	d="
M1502.416748,640.528320 
	C1504.404175,632.438110 1506.325317,624.756531 1508.299438,617.088562 
	C1510.476074,608.633911 1512.741211,600.201904 1514.884766,591.739014 
	C1515.692993,588.548218 1516.480713,585.325134 1516.889038,582.067932 
	C1517.286621,578.896912 1515.492310,577.454529 1512.344727,577.796265 
	C1507.076904,578.368347 1501.810303,578.952698 1496.549438,579.583557 
	C1493.355591,579.966553 1490.527222,579.392395 1490.468506,575.599731 
	C1490.351074,568.034668 1490.549316,560.460693 1490.792114,552.895996 
	C1490.900024,549.533691 1492.649902,548.046448 1496.306396,548.203979 
	C1502.959106,548.490601 1509.644409,548.045471 1516.294434,548.362244 
	C1520.826782,548.578186 1522.126465,546.609253 1522.084717,542.487732 
	C1521.969849,531.158142 1522.046143,519.826599 1522.047974,508.495789 
	C1522.049561,498.062012 1522.060181,498.115112 1532.379517,496.141998 
	C1547.315796,493.286072 1562.206909,490.180481 1577.181030,487.543823 
	C1581.389038,486.802917 1585.834473,487.123474 1590.140381,487.412598 
	C1591.342651,487.493317 1593.195435,489.027557 1593.460449,490.189178 
	C1595.906616,500.911896 1596.848267,511.674561 1594.495483,522.636902 
	C1592.936401,529.900574 1592.111084,537.325439 1591.061035,544.692871 
	C1590.627319,547.736511 1592.638306,548.297424 1595.113159,548.287781 
	C1602.111450,548.260498 1609.110107,548.278137 1616.108521,548.281433 
	C1624.518433,548.285339 1626.471313,550.512146 1624.415649,558.893188 
	C1623.131470,564.129150 1620.780884,569.094971 1619.283203,574.289917 
	C1618.121216,578.320740 1615.371216,578.860962 1611.963867,578.471191 
	C1604.408691,577.606995 1596.874390,576.508423 1589.299561,575.913757 
	C1587.882080,575.802490 1585.269531,577.345215 1584.982300,578.548096 
	C1582.646851,588.330933 1580.814575,598.232117 1578.670166,608.062561 
	C1576.247925,619.165833 1573.140503,630.147339 1571.294434,641.340576 
	C1569.520752,652.095398 1568.936646,663.049377 1567.920776,673.924377 
	C1567.601685,677.339417 1569.940063,678.609070 1572.686035,677.968567 
	C1577.307129,676.890686 1581.958984,675.571960 1586.262451,673.616333 
	C1590.065918,671.887878 1592.457153,672.053894 1594.315674,676.039001 
	C1596.556274,680.843689 1599.040527,685.534668 1601.777710,690.988892 
	C1596.270752,694.810364 1591.062500,699.315735 1585.104980,702.349548 
	C1576.196411,706.886353 1567.039795,711.360474 1557.484253,714.104553 
	C1542.710327,718.347168 1527.396973,720.597961 1513.001343,712.511963 
	C1502.705078,706.728455 1496.794067,697.758179 1496.192627,685.608765 
	C1495.527344,672.169373 1498.890991,659.318054 1501.576050,646.355469 
	C1501.945312,644.572693 1502.112793,642.748108 1502.416748,640.528320 
z"/>
<path fill="#F6F5F1" opacity="1.000000" stroke="none" 
	d="
M748.829834,386.703186 
	C758.972778,384.908051 768.115356,386.207489 776.044495,392.429840 
	C778.322571,394.217499 780.554688,396.494324 781.834167,399.036865 
	C784.778015,404.886963 789.086487,408.834747 794.898193,411.824036 
	C805.080933,417.061554 811.706116,437.058289 805.483398,448.258331 
	C804.515503,450.000366 804.549805,453.007080 805.350525,454.911987 
	C811.727844,470.083405 805.816711,489.994476 788.987427,496.668243 
	C790.344849,502.522797 791.755493,508.407074 793.065247,514.313721 
	C794.309570,519.925232 795.686829,525.522217 796.590820,531.191650 
	C799.941833,552.207703 796.029602,571.912659 785.789185,590.522949 
	C781.180420,598.898499 778.049622,608.276917 772.432678,615.854492 
	C766.871338,623.356995 767.222717,631.436584 767.005005,639.422668 
	C766.671387,651.657410 763.689148,663.697510 754.525818,670.764343 
	C743.564148,679.218140 744.417847,690.801575 741.148499,701.482300 
	C738.019897,711.702942 735.644897,722.239868 731.545349,732.055847 
	C726.536560,744.048889 721.104492,756.121338 713.933350,766.877991 
	C707.639832,776.318298 699.172913,784.510559 690.756592,792.267456 
	C684.657104,797.889160 677.506653,802.800659 670.040649,806.403931 
	C660.102905,811.200073 649.537842,814.849182 638.312134,815.837341 
	C632.904236,816.313293 627.495178,817.659363 622.123657,817.483398 
	C610.377014,817.098511 598.936829,814.695312 587.676208,811.156189 
	C568.714539,805.196594 553.675110,793.361145 540.988403,778.838196 
	C531.698608,768.203796 523.582642,756.395691 518.795715,742.697632 
	C516.308472,735.580383 512.316467,728.938477 510.294006,721.720520 
	C506.735931,709.021912 504.282135,696.017395 501.088226,683.210266 
	C500.449799,680.650208 499.155090,677.606750 497.165222,676.136963 
	C485.163116,667.271240 480.043976,655.091675 479.152100,640.711670 
	C478.915222,636.892273 478.652924,633.004883 479.093140,629.229248 
	C479.782471,623.316956 477.261047,619.883240 472.482788,616.593384 
	C452.257507,602.668396 444.933441,583.520630 449.060059,559.378357 
	C450.194977,552.738647 451.537872,546.118958 453.158844,539.582703 
	C454.571136,533.888062 451.343506,529.611877 448.987823,525.306519 
	C443.675232,515.597107 441.179047,505.430847 442.185486,494.445038 
	C443.523529,479.840027 449.809814,467.811157 461.717896,459.136932 
	C464.919739,456.804596 466.017029,454.327148 466.402374,450.529877 
	C467.385315,440.843933 467.691986,430.808624 470.624573,421.668823 
	C474.756592,408.790680 483.542542,398.801117 496.036407,392.741150 
	C504.105835,388.827240 512.303284,385.512634 521.663330,385.933960 
	C525.829651,386.121521 530.086426,384.952240 534.251526,384.139343 
	C535.608276,383.874542 537.301147,383.107544 537.997070,382.027069 
	C544.459839,371.993134 553.946838,365.376007 563.829041,359.359009 
	C567.062195,357.390411 571.274841,357.096741 574.911621,355.703156 
	C577.741455,354.618744 580.427673,353.113281 583.076233,351.615387 
	C585.501221,350.243958 587.863525,348.732544 590.114868,347.092590 
	C591.761841,345.892822 593.802551,344.676666 594.609192,342.968048 
	C601.210754,328.985291 614.997437,321.606262 630.016785,324.363007 
	C630.945984,324.533600 631.764832,325.327026 632.692749,325.479553 
	C635.496826,325.940338 638.846680,327.385712 641.066406,326.394012 
	C654.797363,320.259766 673.112183,325.758362 680.903564,340.007385 
	C683.421143,344.611603 687.002380,347.004517 691.146973,349.384033 
	C701.096863,355.096497 706.809143,367.234863 704.843567,378.517731 
	C704.199829,382.212860 702.989380,385.806152 702.215698,389.483368 
	C701.934387,390.820221 702.170410,392.265900 702.170410,394.319366 
	C705.967896,392.326202 709.274719,390.917297 712.229736,388.973663 
	C718.982422,384.532104 726.532837,385.254944 733.462402,386.850952 
	C738.733154,388.064972 743.407959,389.005798 748.829834,386.703186 
M723.884460,685.156128 
	C723.952393,683.992188 723.938477,682.816711 724.101440,681.666260 
	C725.156494,674.217224 725.236389,666.778870 733.882568,662.559814 
	C737.897949,660.600403 741.212708,655.595703 743.103577,651.219177 
	C747.346619,641.398010 747.048157,630.837891 745.294922,620.436096 
	C744.168091,613.750916 742.493103,607.156250 741.003967,600.534485 
	C739.019104,591.708557 737.082825,582.869385 734.916687,574.087402 
	C733.669189,569.029297 730.899231,565.195923 726.519226,561.847778 
	C721.617249,558.100525 717.258972,553.270508 713.747192,548.166504 
	C708.938904,541.178162 705.077820,533.528198 700.953979,526.082458 
	C698.497009,521.646240 695.820068,518.852966 689.872009,518.701111 
	C678.488220,518.410339 666.873352,517.915649 655.848755,515.367249 
	C644.432983,512.728394 633.110107,509.109161 623.065491,502.064514 
	C615.883301,497.027435 614.828430,496.734924 610.111023,501.480133 
	C606.623657,504.988129 603.185791,508.548981 599.609009,511.963837 
	C588.483948,522.585083 575.363342,530.263550 561.141357,535.583191 
	C546.450684,541.078186 531.224365,545.135254 516.279297,549.966370 
	C514.951416,550.395508 513.252258,551.711426 512.943604,552.925171 
	C511.083282,560.240295 509.496094,567.628967 507.977509,575.025879 
	C506.452759,582.452698 505.179047,589.930847 503.676788,597.362610 
	C502.239105,604.474670 500.056549,611.494202 499.308350,618.669739 
	C498.678528,624.710083 499.619476,630.916992 499.899292,637.048645 
	C500.447449,649.059998 504.893921,658.813660 515.794678,665.004822 
	C517.213989,665.810974 518.694153,667.482788 519.053833,669.010742 
	C520.487793,675.102234 521.240662,681.355591 522.708740,687.437256 
	C525.029968,697.053345 526.902466,706.898193 530.459290,716.066406 
	C535.329712,728.620667 540.785645,741.106262 547.549683,752.712708 
	C552.199036,760.690613 559.077332,767.546631 565.713928,774.145142 
	C574.254883,782.636841 584.230957,789.243530 596.181030,792.186279 
	C601.459473,793.486145 606.757446,794.898132 612.132629,795.563599 
	C618.487366,796.350281 625.137939,797.548950 631.295593,796.476013 
	C640.777161,794.823792 650.174805,791.986206 659.192627,788.558533 
	C670.036682,784.436707 678.868530,776.772278 686.552246,768.364929 
	C692.703918,761.633972 697.671204,753.699829 702.431580,745.855164 
	C706.442444,739.245850 710.193054,732.264160 712.647644,724.972290 
	C716.952209,712.184570 720.176514,699.033142 723.884460,685.156128 
M593.807556,411.531616 
	C596.740662,413.568024 599.522705,417.015656 602.638123,417.349182 
	C609.265381,418.058716 611.310425,422.272797 612.673889,427.386566 
	C615.433594,437.737061 623.861023,440.338074 632.093994,433.134094 
	C635.402344,430.239319 638.722229,430.289093 642.200439,431.733582 
	C644.768982,432.800232 647.055664,434.564850 649.427734,436.081329 
	C654.289551,439.189453 663.315002,435.049774 663.885010,429.271881 
	C664.955139,418.424866 668.678528,418.363098 676.094116,416.220795 
	C683.792297,413.996887 687.400024,406.363922 682.285706,400.170227 
	C677.363403,394.209045 676.845398,388.947571 681.493896,382.805695 
	C687.587097,374.755066 683.518066,366.389648 673.305847,364.917236 
	C668.005371,364.153015 664.490356,360.787598 664.279175,355.741089 
	C663.868286,345.923798 653.703186,341.153473 645.100708,348.373474 
	C641.701416,351.226471 634.233398,350.916687 630.711548,348.130096 
	C622.969910,342.004730 615.089966,344.722168 612.991089,354.241058 
	C611.391357,361.496521 608.696655,363.501617 601.516357,365.055725 
	C592.916504,366.917084 589.404541,374.930481 594.263184,381.661652 
	C600.702576,390.582764 600.820923,391.013977 594.495544,400.194092 
	C592.231384,403.480133 591.105042,407.044098 593.807556,411.531616 
M710.269531,424.954193 
	C708.413086,425.643250 706.606201,426.551056 704.691956,426.984894 
	C694.360046,429.326355 692.926941,437.006195 697.954346,444.381104 
	C702.550598,451.123566 702.485352,454.648682 697.381042,461.343475 
	C694.591919,465.001740 694.639587,469.191284 696.300110,473.118713 
	C697.648254,476.307434 700.360291,477.865753 704.193665,478.095856 
	C710.927917,478.500122 714.866150,482.832062 715.888977,489.626312 
	C716.170349,491.495514 716.588135,493.634583 717.710938,495.033966 
	C721.557495,499.828339 728.890381,499.989166 733.567993,495.685638 
	C738.669312,490.992310 742.635986,490.720764 748.206604,494.752777 
	C749.143188,495.430634 749.855408,496.425049 750.806946,497.074402 
	C756.072083,500.667511 763.566528,498.467133 763.987793,493.249756 
	C764.707031,484.340027 767.705383,480.711395 776.261292,478.396027 
	C788.112183,475.188995 790.229553,469.301666 783.073792,459.453918 
	C780.016724,455.246826 780.016602,450.474701 783.073547,446.173584 
	C790.234131,436.098358 788.082886,430.064972 776.146545,426.589355 
	C774.562927,426.128204 772.619446,425.747650 771.635681,424.631104 
	C769.786072,422.531647 767.523010,420.055817 767.179199,417.501251 
	C765.832703,407.498383 757.543457,403.486786 749.267517,409.266663 
	C742.154663,414.234253 738.816711,414.069977 732.152344,408.590149 
	C728.718994,405.767151 724.687622,405.765076 720.925964,407.363007 
	C717.790405,408.694946 716.253784,411.336914 715.639893,415.111816 
	C715.099731,418.432983 712.572998,421.431061 710.269531,424.954193 
z"/>
<path fill="#FAFDFE" opacity="1.000000" stroke="none" 
	d="
M1828.708862,665.728394 
	C1820.575684,680.820129 1803.992676,685.638977 1787.357178,683.493774 
	C1786.207031,683.345581 1785.066284,683.122864 1783.915527,682.981934 
	C1775.224487,681.917297 1773.469971,679.582153 1774.976807,671.071716 
	C1777.370972,657.550354 1779.447266,643.963074 1782.241089,630.524841 
	C1785.099365,616.776794 1788.501465,603.133057 1792.081177,589.553162 
	C1792.625366,587.488831 1795.313965,584.640869 1797.190552,584.496460 
	C1808.978638,583.590149 1821.266602,582.447998 1830.431763,592.032227 
	C1833.889893,595.648376 1836.975342,600.788086 1837.692749,605.610779 
	C1839.115112,615.174438 1839.087036,625.000610 1839.079346,634.717834 
	C1839.070435,645.974670 1834.773560,656.014526 1828.708862,665.728394 
z"/>
<path fill="#F8FCFD" opacity="1.000000" stroke="none" 
	d="
M1803.942261,534.803223 
	C1806.421387,521.735657 1808.781616,509.071320 1811.198975,496.417877 
	C1812.654541,488.798706 1814.011108,481.150208 1815.867676,473.627258 
	C1816.224121,472.182648 1818.671021,470.316223 1820.206421,470.265961 
	C1826.178223,470.070648 1832.496826,468.152039 1837.835815,472.879242 
	C1841.130981,475.797058 1843.857788,478.810699 1844.153564,483.568420 
	C1844.449219,488.323608 1845.902588,493.080505 1845.680298,497.781464 
	C1844.734131,517.784180 1838.419067,535.542969 1823.137207,549.425049 
	C1817.851074,554.227173 1811.825439,556.200073 1804.893311,555.926758 
	C1801.266113,555.783752 1799.317627,554.446472 1800.488525,550.231628 
	C1801.859985,545.294678 1802.749023,540.223755 1803.942261,534.803223 
z"/>
<path fill="#F9FDFE" opacity="1.000000" stroke="none" 
	d="
M1214.217285,672.184082 
	C1204.015259,683.363037 1191.197754,685.006836 1177.527466,683.460327 
	C1174.131226,683.076111 1170.818481,681.841980 1167.504517,680.872131 
	C1164.325928,679.941895 1163.697876,677.699707 1164.264160,674.622498 
	C1166.955444,659.994934 1169.234253,645.284668 1172.240723,630.723816 
	C1175.109985,616.827820 1178.555054,603.043152 1182.126343,589.308228 
	C1182.631470,587.365967 1185.188232,584.686646 1186.963135,584.551331 
	C1198.545654,583.668640 1210.091919,582.863892 1220.082764,591.275146 
	C1225.111206,595.508545 1227.508057,600.913208 1228.103516,606.622681 
	C1229.124634,616.413330 1228.817261,626.352112 1228.886108,636.229980 
	C1228.975952,649.113708 1222.649780,659.659180 1216.171875,670.109741 
	C1215.742798,670.801697 1215.044067,671.326416 1214.217285,672.184082 
z"/>
<path fill="#F8FCFD" opacity="1.000000" stroke="none" 
	d="
M1198.624023,555.697510 
	C1196.381958,555.700623 1194.395508,556.067688 1192.807129,555.435242 
	C1191.688110,554.989746 1190.228149,553.010071 1190.426880,552.016846 
	C1192.306030,542.626404 1194.615112,533.323059 1196.581177,523.948669 
	C1197.934204,517.497009 1198.937134,510.972076 1200.103149,504.481049 
	C1201.912964,494.405060 1203.791626,484.340851 1205.505249,474.248596 
	C1206.069092,470.927582 1207.906982,469.771973 1211.038818,470.052826 
	C1216.184814,470.514252 1221.287964,468.783539 1226.499023,471.853302 
	C1234.029785,476.289459 1235.036499,483.631317 1235.631470,490.643799 
	C1237.103149,507.989655 1232.593140,524.205078 1222.857056,538.571106 
	C1219.306763,543.809753 1214.223022,548.208496 1209.186768,552.159241 
	C1206.532471,554.241455 1202.474121,554.533875 1198.624023,555.697510 
z"/>
<path fill="#F6FCFD" opacity="1.000000" stroke="none" 
	d="
M2241.483398,619.663574 
	C2239.525635,633.346191 2237.691650,646.610229 2235.933594,659.884277 
	C2235.434326,663.653503 2235.230957,667.461853 2234.728516,671.230469 
	C2234.583008,672.322144 2234.152344,673.664612 2233.373047,674.335510 
	C2228.676270,678.379639 2222.510010,679.524475 2217.455811,677.369507 
	C2213.878906,675.844360 2209.790527,670.665283 2209.599609,666.929626 
	C2208.931152,653.863647 2208.996338,640.621094 2210.436279,627.628845 
	C2211.659180,616.593933 2214.241455,605.479797 2217.994629,595.037659 
	C2220.408691,588.320618 2225.021240,581.461609 2230.573242,577.137512 
	C2234.177246,574.330750 2241.487061,574.861877 2246.688477,575.980530 
	C2250.792725,576.863098 2248.990479,582.103699 2248.427246,585.276062 
	C2246.409668,596.643921 2243.937012,607.931091 2241.483398,619.663574 
z"/>
<path fill="#F6FCFD" opacity="1.000000" stroke="none" 
	d="
M2414.305176,667.233765 
	C2414.593994,653.696838 2413.992432,640.478638 2415.506104,627.507324 
	C2416.850098,615.992676 2419.514893,604.366699 2423.579102,593.533447 
	C2426.062988,586.913086 2431.444336,580.570862 2437.158691,576.280823 
	C2440.479492,573.787781 2447.042725,575.418091 2452.120361,575.689331 
	C2452.814453,575.726379 2454.058105,578.747192 2453.848877,580.215942 
	C2452.688232,588.370605 2451.097900,596.462952 2449.764404,604.594604 
	C2447.145264,620.565369 2444.520508,636.535950 2442.061523,652.531799 
	C2441.107910,658.735107 2440.716309,665.024292 2439.793457,671.233398 
	C2439.584229,672.641479 2438.520996,674.271729 2437.357422,675.131836 
	C2429.975342,680.587952 2420.381104,678.629517 2415.714111,670.844910 
	C2415.124023,669.861206 2414.788574,668.725220 2414.305176,667.233765 
z"/>
<path fill="#F2FAFC" opacity="1.000000" stroke="none" 
	d="
M2607.224609,767.338684 
	C2603.666260,767.925049 2600.321777,769.088440 2597.272949,768.556458 
	C2590.793213,767.426086 2588.537354,761.237610 2592.012695,755.567871 
	C2596.416992,748.382446 2603.729492,745.662720 2611.176514,743.274292 
	C2616.317871,741.625366 2621.555176,740.266663 2626.779053,738.889832 
	C2627.775879,738.627075 2629.548096,738.496582 2629.846680,738.985901 
	C2630.443604,739.964478 2630.831055,741.734131 2630.326660,742.620483 
	C2624.671631,752.557800 2619.235596,762.767334 2607.224609,767.338684 
z"/>
<path fill="#F2FAFC" opacity="1.000000" stroke="none" 
	d="
M1393.410400,597.407349 
	C1396.339722,589.229370 1399.750977,581.752625 1405.831299,575.909607 
	C1407.451660,574.352539 1409.555420,572.875366 1411.682007,572.348083 
	C1417.909546,570.803833 1421.450195,573.985718 1421.977173,580.641907 
	C1422.679321,589.510498 1419.518799,597.265503 1414.743408,604.255737 
	C1410.000854,611.197693 1404.485352,617.622009 1399.129761,624.125977 
	C1398.047363,625.440369 1396.271606,626.380066 1394.629639,627.001160 
	C1389.561401,628.918335 1388.316650,627.913452 1389.146362,622.551758 
	C1390.426514,614.279419 1391.876465,606.033447 1393.410400,597.407349 
z"/>
<path fill="#5CB3BE" opacity="1.000000" stroke="none" 
	d="
M723.868896,685.595093 
	C720.176514,699.033142 716.952209,712.184570 712.647644,724.972290 
	C710.193054,732.264160 706.442444,739.245850 702.431580,745.855164 
	C697.671204,753.699829 692.703918,761.633972 686.552246,768.364929 
	C678.868530,776.772278 670.036682,784.436707 659.192627,788.558533 
	C650.174805,791.986206 640.777161,794.823792 631.295593,796.476013 
	C625.137939,797.548950 618.487366,796.350281 612.132629,795.563599 
	C606.757446,794.898132 601.459473,793.486145 596.181030,792.186279 
	C584.230957,789.243530 574.254883,782.636841 565.713928,774.145142 
	C559.077332,767.546631 552.199036,760.690613 547.549683,752.712708 
	C540.785645,741.106262 535.329712,728.620667 530.459290,716.066406 
	C526.902466,706.898193 525.029968,697.053345 522.708740,687.437256 
	C521.240662,681.355591 520.487793,675.102234 519.053833,669.010742 
	C518.694153,667.482788 517.213989,665.810974 515.794678,665.004822 
	C504.893921,658.813660 500.447449,649.059998 499.899292,637.048645 
	C499.619476,630.916992 498.678528,624.710083 499.308350,618.669739 
	C500.056549,611.494202 502.239105,604.474670 503.676788,597.362610 
	C505.179047,589.930847 506.452759,582.452698 507.977509,575.025879 
	C509.496094,567.628967 511.083282,560.240295 512.943604,552.925171 
	C513.252258,551.711426 514.951416,550.395508 516.279297,549.966370 
	C531.224365,545.135254 546.450684,541.078186 561.141357,535.583191 
	C575.363342,530.263550 588.483948,522.585083 599.609009,511.963837 
	C603.185791,508.548981 606.623657,504.988129 610.111023,501.480133 
	C614.828430,496.734924 615.883301,497.027435 623.065491,502.064514 
	C633.110107,509.109161 644.432983,512.728394 655.848755,515.367249 
	C666.873352,517.915649 678.488220,518.410339 689.872009,518.701111 
	C695.820068,518.852966 698.497009,521.646240 700.953979,526.082458 
	C705.077820,533.528198 708.938904,541.178162 713.747192,548.166504 
	C717.258972,553.270508 721.617249,558.100525 726.519226,561.847778 
	C730.899231,565.195923 733.669189,569.029297 734.916687,574.087402 
	C737.082825,582.869385 739.019104,591.708557 741.003967,600.534485 
	C742.493103,607.156250 744.168091,613.750916 745.294922,620.436096 
	C747.048157,630.837891 747.346619,641.398010 743.103577,651.219177 
	C741.212708,655.595703 737.897949,660.600403 733.882568,662.559814 
	C725.236389,666.778870 725.156494,674.217224 724.101440,681.666260 
	C723.938477,682.816711 723.952393,683.992188 723.868896,685.595093 
M678.960083,721.288879 
	C681.021118,716.469116 678.460754,712.742065 675.503113,709.653442 
	C673.060791,707.103149 665.514709,707.481201 662.805664,709.978088 
	C654.236694,717.876282 644.005310,722.482300 632.652588,723.460449 
	C623.973877,724.208252 614.922974,724.066162 606.414124,722.398560 
	C597.776611,720.705688 589.940491,716.131836 583.213562,709.997314 
	C579.700684,706.793823 571.544800,707.743774 568.539551,711.214355 
	C565.286804,714.970642 565.508606,720.943909 569.374146,724.785645 
	C579.859375,735.206360 593.055603,741.478027 607.147644,743.348145 
	C623.843323,745.563599 641.126221,745.888977 656.967163,737.845886 
	C665.028625,733.752686 673.450012,729.962341 678.960083,721.288879 
M530.034485,575.268127 
	C528.229065,576.115601 526.381836,576.885071 524.626831,577.826538 
	C520.639282,579.965637 518.260803,583.057007 518.981506,587.876404 
	C519.598145,591.999634 521.698120,594.547607 525.797241,596.092041 
	C531.286255,598.159912 535.866211,595.007324 540.864807,594.401917 
	C549.525269,593.352966 558.168396,591.248596 566.817444,591.255371 
	C576.937073,591.263245 586.537415,594.684937 595.561462,599.527100 
	C599.240479,601.501221 603.317017,602.605042 607.366882,600.082092 
	C611.038818,597.794556 612.904785,594.564697 612.832825,590.141174 
	C612.747742,584.913452 608.720825,582.518188 605.173523,580.552185 
	C592.161865,573.340637 577.910645,569.817505 563.150513,570.491699 
	C552.326172,570.986023 541.594421,573.506531 530.034485,575.268127 
M684.288208,571.161072 
	C682.004028,570.857178 679.688416,570.144165 677.440735,570.316406 
	C663.644043,571.373230 650.477478,574.912231 638.375610,581.673401 
	C632.723755,584.831055 631.664673,593.176941 635.746338,597.821777 
	C639.267334,601.828491 644.293884,602.355957 650.330139,599.730103 
	C656.045898,597.243652 661.717590,593.987915 667.725220,593.004578 
	C675.744202,591.692017 684.084229,591.841675 692.256653,592.149841 
	C697.294983,592.339905 702.283386,593.969299 707.284058,595.001526 
	C710.782654,595.723633 714.451538,597.599854 717.706787,597.030396 
	C721.954773,596.287354 726.196594,593.990356 727.002869,588.670471 
	C727.818359,583.289551 726.247498,579.544495 720.286865,577.440369 
	C713.340820,574.988342 705.986267,573.575867 698.716309,572.202942 
	C694.285706,571.366272 689.680481,571.454407 684.288208,571.161072 
M609.149841,691.751404 
	C616.757446,692.121338 624.372437,692.874817 631.970093,692.728760 
	C637.179321,692.628662 640.985046,689.983459 643.080872,684.508057 
	C644.556946,680.651611 643.659363,677.725708 641.311829,675.501648 
	C639.245972,673.544434 636.158020,671.909363 633.369568,671.625732 
	C627.167297,670.995117 620.869263,671.211853 614.611511,671.254639 
	C610.686462,671.281494 606.868835,671.230530 603.980347,675.070618 
	C601.092529,678.909912 600.426086,682.634155 602.997742,686.502258 
	C604.309875,688.475891 606.591064,689.805237 609.149841,691.751404 
M686.384399,602.902405 
	C678.682678,597.804016 665.729065,604.334778 664.203613,613.206604 
	C662.782227,621.472839 667.173035,629.319031 674.303772,631.781128 
	C681.331848,634.207825 688.911011,630.950623 693.102661,623.504517 
	C694.205139,621.545959 695.822693,619.068298 695.416687,617.221863 
	C694.218750,611.774231 692.710449,606.165649 686.384399,602.902405 
M561.880127,631.816223 
	C569.103516,633.853027 576.037598,631.206299 579.901489,624.937622 
	C583.598206,618.940186 582.677490,611.445801 577.186462,606.017578 
	C573.120178,601.997803 568.025513,599.837769 562.371338,601.677185 
	C555.385132,603.950012 550.942932,610.058044 551.027161,616.392639 
	C551.122803,623.587036 555.189880,628.189941 561.880127,631.816223 
z"/>
<path fill="#5FB4BF" opacity="1.000000" stroke="none" 
	d="
M593.635864,411.195068 
	C591.105042,407.044098 592.231384,403.480133 594.495544,400.194092 
	C600.820923,391.013977 600.702576,390.582764 594.263184,381.661652 
	C589.404541,374.930481 592.916504,366.917084 601.516357,365.055725 
	C608.696655,363.501617 611.391357,361.496521 612.991089,354.241058 
	C615.089966,344.722168 622.969910,342.004730 630.711548,348.130096 
	C634.233398,350.916687 641.701416,351.226471 645.100708,348.373474 
	C653.703186,341.153473 663.868286,345.923798 664.279175,355.741089 
	C664.490356,360.787598 668.005371,364.153015 673.305847,364.917236 
	C683.518066,366.389648 687.587097,374.755066 681.493896,382.805695 
	C676.845398,388.947571 677.363403,394.209045 682.285706,400.170227 
	C687.400024,406.363922 683.792297,413.996887 676.094116,416.220795 
	C668.678528,418.363098 664.955139,418.424866 663.885010,429.271881 
	C663.315002,435.049774 654.289551,439.189453 649.427734,436.081329 
	C647.055664,434.564850 644.768982,432.800232 642.200439,431.733582 
	C638.722229,430.289093 635.402344,430.239319 632.093994,433.134094 
	C623.861023,440.338074 615.433594,437.737061 612.673889,427.386566 
	C611.310425,422.272797 609.265381,418.058716 602.638123,417.349182 
	C599.522705,417.015656 596.740662,413.568024 593.635864,411.195068 
M652.903442,396.840363 
	C653.467407,391.477173 654.846802,386.224823 650.370850,381.397552 
	C646.783997,377.529114 640.954468,374.329254 636.488953,375.774872 
	C630.756409,377.630676 624.912659,379.646973 624.069275,387.010162 
	C623.296509,393.756958 623.819885,400.293823 630.366089,404.065369 
	C637.336365,408.081207 645.303406,407.564270 652.903442,396.840363 
z"/>
<path fill="#5FB4BF" opacity="1.000000" stroke="none" 
	d="
M710.596558,424.763000 
	C712.572998,421.431061 715.099731,418.432983 715.639893,415.111816 
	C716.253784,411.336914 717.790405,408.694946 720.925964,407.363007 
	C724.687622,405.765076 728.718994,405.767151 732.152344,408.590149 
	C738.816711,414.069977 742.154663,414.234253 749.267517,409.266663 
	C757.543457,403.486786 765.832703,407.498383 767.179199,417.501251 
	C767.523010,420.055817 769.786072,422.531647 771.635681,424.631104 
	C772.619446,425.747650 774.562927,426.128204 776.146545,426.589355 
	C788.082886,430.064972 790.234131,436.098358 783.073547,446.173584 
	C780.016602,450.474701 780.016724,455.246826 783.073792,459.453918 
	C790.229553,469.301666 788.112183,475.188995 776.261292,478.396027 
	C767.705383,480.711395 764.707031,484.340027 763.987793,493.249756 
	C763.566528,498.467133 756.072083,500.667511 750.806946,497.074402 
	C749.855408,496.425049 749.143188,495.430634 748.206604,494.752777 
	C742.635986,490.720764 738.669312,490.992310 733.567993,495.685638 
	C728.890381,499.989166 721.557495,499.828339 717.710938,495.033966 
	C716.588135,493.634583 716.170349,491.495514 715.888977,489.626312 
	C714.866150,482.832062 710.927917,478.500122 704.193665,478.095856 
	C700.360291,477.865753 697.648254,476.307434 696.300110,473.118713 
	C694.639587,469.191284 694.591919,465.001740 697.381042,461.343475 
	C702.485352,454.648682 702.550598,451.123566 697.954346,444.381104 
	C692.926941,437.006195 694.360046,429.326355 704.691956,426.984894 
	C706.606201,426.551056 708.413086,425.643250 710.596558,424.763000 
M742.129883,437.315033 
	C732.126160,436.990448 726.138916,443.283752 726.060913,453.699951 
	C726.016418,459.637543 729.222290,463.108337 733.817993,465.932098 
	C738.963867,469.093933 744.198792,468.259369 748.888794,465.464874 
	C755.300171,461.644653 757.687012,455.525818 755.718933,448.325317 
	C753.997925,442.028595 749.520142,438.364685 742.129883,437.315033 
z"/>
<path fill="#F1F3EF" opacity="1.000000" stroke="none" 
	d="
M678.868042,721.652344 
	C673.450012,729.962341 665.028625,733.752686 656.967163,737.845886 
	C641.126221,745.888977 623.843323,745.563599 607.147644,743.348145 
	C593.055603,741.478027 579.859375,735.206360 569.374146,724.785645 
	C565.508606,720.943909 565.286804,714.970642 568.539551,711.214355 
	C571.544800,707.743774 579.700684,706.793823 583.213562,709.997314 
	C589.940491,716.131836 597.776611,720.705688 606.414124,722.398560 
	C614.922974,724.066162 623.973877,724.208252 632.652588,723.460449 
	C644.005310,722.482300 654.236694,717.876282 662.805664,709.978088 
	C665.514709,707.481201 673.060791,707.103149 675.503113,709.653442 
	C678.460754,712.742065 681.021118,716.469116 678.868042,721.652344 
z"/>
<path fill="#F0F2EF" opacity="1.000000" stroke="none" 
	d="
M530.427979,575.196045 
	C541.594421,573.506531 552.326172,570.986023 563.150513,570.491699 
	C577.910645,569.817505 592.161865,573.340637 605.173523,580.552185 
	C608.720825,582.518188 612.747742,584.913452 612.832825,590.141174 
	C612.904785,594.564697 611.038818,597.794556 607.366882,600.082092 
	C603.317017,602.605042 599.240479,601.501221 595.561462,599.527100 
	C586.537415,594.684937 576.937073,591.263245 566.817444,591.255371 
	C558.168396,591.248596 549.525269,593.352966 540.864807,594.401917 
	C535.866211,595.007324 531.286255,598.159912 525.797241,596.092041 
	C521.698120,594.547607 519.598145,591.999634 518.981506,587.876404 
	C518.260803,583.057007 520.639282,579.965637 524.626831,577.826538 
	C526.381836,576.885071 528.229065,576.115601 530.427979,575.196045 
z"/>
<path fill="#F0F2EF" opacity="1.000000" stroke="none" 
	d="
M684.720947,571.144043 
	C689.680481,571.454407 694.285706,571.366272 698.716309,572.202942 
	C705.986267,573.575867 713.340820,574.988342 720.286865,577.440369 
	C726.247498,579.544495 727.818359,583.289551 727.002869,588.670471 
	C726.196594,593.990356 721.954773,596.287354 717.706787,597.030396 
	C714.451538,597.599854 710.782654,595.723633 707.284058,595.001526 
	C702.283386,593.969299 697.294983,592.339905 692.256653,592.149841 
	C684.084229,591.841675 675.744202,591.692017 667.725220,593.004578 
	C661.717590,593.987915 656.045898,597.243652 650.330139,599.730103 
	C644.293884,602.355957 639.267334,601.828491 635.746338,597.821777 
	C631.664673,593.176941 632.723755,584.831055 638.375610,581.673401 
	C650.477478,574.912231 663.644043,571.373230 677.440735,570.316406 
	C679.688416,570.144165 682.004028,570.857178 684.720947,571.144043 
z"/>
<path fill="#EFF1EE" opacity="1.000000" stroke="none" 
	d="
M608.792053,691.588623 
	C606.591064,689.805237 604.309875,688.475891 602.997742,686.502258 
	C600.426086,682.634155 601.092529,678.909912 603.980347,675.070618 
	C606.868835,671.230530 610.686462,671.281494 614.611511,671.254639 
	C620.869263,671.211853 627.167297,670.995117 633.369568,671.625732 
	C636.158020,671.909363 639.245972,673.544434 641.311829,675.501648 
	C643.659363,677.725708 644.556946,680.651611 643.080872,684.508057 
	C640.985046,689.983459 637.179321,692.628662 631.970093,692.728760 
	C624.372437,692.874817 616.757446,692.121338 608.792053,691.588623 
z"/>
<path fill="#EFF1EE" opacity="1.000000" stroke="none" 
	d="
M686.727356,603.062683 
	C692.710449,606.165649 694.218750,611.774231 695.416687,617.221863 
	C695.822693,619.068298 694.205139,621.545959 693.102661,623.504517 
	C688.911011,630.950623 681.331848,634.207825 674.303772,631.781128 
	C667.173035,629.319031 662.782227,621.472839 664.203613,613.206604 
	C665.729065,604.334778 678.682678,597.804016 686.727356,603.062683 
z"/>
<path fill="#EFF1EE" opacity="1.000000" stroke="none" 
	d="
M561.558228,631.603638 
	C555.189880,628.189941 551.122803,623.587036 551.027161,616.392639 
	C550.942932,610.058044 555.385132,603.950012 562.371338,601.677185 
	C568.025513,599.837769 573.120178,601.997803 577.186462,606.017578 
	C582.677490,611.445801 583.598206,618.940186 579.901489,624.937622 
	C576.037598,631.206299 569.103516,633.853027 561.558228,631.603638 
z"/>
<path fill="#EFF1EE" opacity="1.000000" stroke="none" 
	d="
M652.778564,397.213501 
	C645.303406,407.564270 637.336365,408.081207 630.366089,404.065369 
	C623.819885,400.293823 623.296509,393.756958 624.069275,387.010162 
	C624.912659,379.646973 630.756409,377.630676 636.488953,375.774872 
	C640.954468,374.329254 646.783997,377.529114 650.370850,381.397552 
	C654.846802,386.224823 653.467407,391.477173 652.778564,397.213501 
z"/>
<path fill="#F0F2EF" opacity="1.000000" stroke="none" 
	d="
M742.521240,437.433594 
	C749.520142,438.364685 753.997925,442.028595 755.718933,448.325317 
	C757.687012,455.525818 755.300171,461.644653 748.888794,465.464874 
	C744.198792,468.259369 738.963867,469.093933 733.817993,465.932098 
	C729.222290,463.108337 726.016418,459.637543 726.060913,453.699951 
	C726.138916,443.283752 732.126160,436.990448 742.521240,437.433594 
z"/>
</svg>