<svg version="1.1" id="Layer_1" xmlns="http://www.w3.org/2000/svg" xmlns:xlink="http://www.w3.org/1999/xlink" x="0px" y="0px"
	 width="100%" viewBox="0 0 822 304" enable-background="new 0 0 822 304" xml:space="preserve">
<path fill="#F0F4F8" opacity="1.000000" stroke="none" 
	d="
M577.000000,305.000000 
	C386.208893,305.000000 195.917786,304.989838 5.626712,305.078766 
	C2.112005,305.080414 0.881176,304.661316 0.887094,300.628510 
	C1.031591,202.150558 1.028553,103.672333 0.890723,5.194382 
	C0.885465,1.437343 1.847662,0.914683 5.303915,0.915852 
	C276.410400,1.007532 547.516907,1.011469 818.623352,0.889641 
	C822.644287,0.887834 823.083801,2.097849 823.080200,5.621497 
	C822.980286,103.932907 822.971985,202.244476 823.103760,300.555817 
	C823.108948,304.432739 822.096802,305.094757 818.445923,305.089447 
	C738.130737,304.972351 657.815369,305.000000 577.000000,305.000000 
z"/>
<path fill="#2DB4C0" opacity="1.000000" stroke="none" 
	d="
M188.000000,76.019356 
	C206.996292,76.018814 225.493347,76.103836 243.988235,75.943153 
	C247.513519,75.912529 248.904465,76.538994 248.893661,80.513641 
	C248.756958,130.836533 248.781311,181.159958 248.871506,231.483063 
	C248.877228,234.670654 248.110458,235.821274 244.721451,235.814774 
	C192.565414,235.714767 140.409058,235.703491 88.253082,235.812729 
	C84.574554,235.820435 83.911469,234.484024 83.917122,231.183258 
	C84.003151,181.026779 84.032722,130.869934 83.868340,80.713829 
	C83.854439,76.474106 85.391998,75.930611 89.020088,75.943794 
	C121.846382,76.063087 154.673279,76.017113 188.000000,76.019356 
z"/>
<path fill="#06BED6" opacity="1.000000" stroke="none" 
	d="
M465.151978,131.556335 
	C464.405731,129.623749 463.843750,128.044220 463.023926,126.612320 
	C460.255585,121.777054 460.376892,121.639442 466.150726,121.081032 
	C473.930420,120.328636 481.678406,119.162453 489.521698,119.331856 
	C493.189362,119.411064 496.811493,119.907845 500.369690,120.870758 
	C508.091583,122.960495 511.752075,126.759262 512.497986,133.556732 
	C513.228394,140.212891 509.657623,146.522339 503.249664,149.852264 
	C501.229828,150.901871 499.182770,151.899078 496.479675,153.255844 
	C497.942566,153.865082 498.622620,154.199417 499.334961,154.437027 
	C506.414429,156.798584 511.240784,161.155655 511.613312,169.036682 
	C511.999573,177.209518 508.511078,183.545563 501.644958,187.923233 
	C495.436462,191.881607 488.336151,193.069809 481.467163,191.407730 
	C474.006042,189.602386 466.830170,189.662872 459.526123,191.186142 
	C454.998932,192.130295 454.108948,190.468887 454.759216,186.212570 
	C457.172913,170.413773 461.834991,155.103027 464.672119,139.401535 
	C465.118744,136.929855 465.574738,134.492432 465.151978,131.556335 
z"/>
<path fill="#06BED6" opacity="1.000000" stroke="none" 
	d="
M348.222351,141.965668 
	C345.218048,148.089722 339.510193,150.298843 333.644775,153.306122 
	C334.981110,153.834244 335.661377,154.127411 336.357910,154.374603 
	C343.292511,156.835510 348.334442,160.951416 348.747803,168.916367 
	C349.185638,177.354355 345.490845,183.723572 338.431274,188.070129 
	C331.036102,192.623337 322.703552,193.314163 314.838776,190.674591 
	C308.241302,188.460342 302.422455,190.817383 296.305054,191.326157 
	C292.057526,191.679382 291.061981,190.536560 291.778320,186.447678 
	C294.446594,171.217300 298.324707,156.254837 301.524628,141.143921 
	C302.723724,135.481354 303.312439,129.934555 299.024628,125.085838 
	C297.224792,123.050560 298.144592,121.486115 300.515198,121.316879 
	C312.246979,120.479355 323.951691,117.752434 335.761841,120.416962 
	C347.818146,123.137024 351.642975,129.616653 348.222351,141.965668 
z"/>
<path fill="#06BED6" opacity="1.000000" stroke="none" 
	d="
M677.122192,182.488098 
	C678.074646,184.396362 677.805603,185.527237 676.384766,186.725281 
	C669.832092,192.250656 661.656189,192.953842 654.203613,188.321030 
	C652.941711,187.536575 652.008789,187.921097 650.973450,188.392136 
	C649.460815,189.080353 648.029053,189.954391 646.496582,190.589371 
	C636.488342,194.735992 627.668457,189.407715 626.957336,178.693481 
	C626.456238,171.142349 626.996704,163.802917 631.043457,157.000732 
	C636.289612,148.182281 644.573608,144.302399 654.249451,147.319321 
	C657.932983,148.467834 658.606262,147.209106 658.998291,144.225708 
	C659.970276,136.828751 662.224670,129.599976 661.892822,122.031540 
	C661.878296,121.699944 661.849731,121.352112 661.926880,121.036034 
	C662.484253,118.752701 671.719666,116.434265 676.988586,117.064735 
	C680.718445,117.511047 679.780396,120.360970 679.708313,122.393921 
	C679.341064,132.753113 676.439697,142.703201 674.518494,152.813995 
	C673.278625,159.338959 671.895142,165.856125 671.093201,172.439789 
	C670.132141,180.329987 670.370483,180.359024 677.122192,182.488098 
z"/>
<path fill="#06BED6" opacity="1.000000" stroke="none" 
	d="
M574.795227,159.874359 
	C581.088257,147.812943 587.453003,144.797943 600.583313,147.698486 
	C602.828247,148.194397 603.638306,147.600494 603.934448,145.516357 
	C604.985596,138.120544 607.353760,130.892593 606.956360,123.318710 
	C606.811462,120.557411 607.528687,119.031952 610.515747,118.541634 
	C626.032043,115.994720 626.468079,114.741913 623.986267,130.464615 
	C621.914673,143.588196 619.065186,156.588089 616.639709,169.657501 
	C616.186462,172.099686 615.989807,174.606934 615.890686,177.092758 
	C615.780823,179.851135 615.587158,182.910736 620.053955,181.346237 
	C621.532166,180.828491 622.132568,181.844391 622.572205,183.037186 
	C623.080688,184.417038 622.916687,185.478790 621.752502,186.592026 
	C616.012512,192.080841 606.281250,193.030716 599.526428,188.458984 
	C597.855835,187.328323 596.735291,188.167236 595.422241,188.767410 
	C592.705872,190.008987 590.099121,191.464218 587.013916,191.761978 
	C579.339233,192.502686 573.964783,188.831635 572.547791,181.255478 
	C571.209473,174.099808 571.680115,167.001938 574.795227,159.874359 
z"/>
<path fill="#07BED6" opacity="1.000000" stroke="none" 
	d="
M682.765442,173.593750 
	C683.881226,165.956635 686.684143,158.998016 685.996643,151.529221 
	C685.797729,149.367630 687.352417,149.226318 688.892944,149.001160 
	C692.511841,148.472244 696.162109,148.070343 699.727905,147.289215 
	C703.551086,146.451721 704.416626,148.228622 704.312622,151.537369 
	C704.085754,158.754288 701.606995,165.563873 700.638550,172.642136 
	C700.458618,173.957001 700.140503,175.262527 700.077026,176.581543 
	C699.980774,178.583328 699.767090,180.758026 702.668213,181.077240 
	C705.378052,181.375427 707.218079,180.446350 707.635742,177.537430 
	C708.769287,169.642166 710.104736,161.767609 710.927429,153.839935 
	C711.271240,150.526779 712.720459,149.323715 715.709595,148.600998 
	C729.462646,145.275772 729.527832,145.326248 727.340027,159.154602 
	C725.261963,172.289139 723.647766,185.543060 717.865295,197.741776 
	C714.065857,205.757217 708.607422,211.953430 699.144409,213.209091 
	C698.488220,213.296143 697.840088,213.543823 697.187927,213.545059 
	C691.394653,213.555908 686.793457,210.902298 685.941284,207.102722 
	C684.867981,202.316788 687.471924,198.356323 693.610229,195.865341 
	C696.683472,194.618195 699.871216,193.626450 703.059448,192.698822 
	C705.276001,192.053894 706.286316,190.363693 705.630127,188.597397 
	C704.925720,186.701294 703.089661,188.069107 701.827148,188.507950 
	C698.372864,189.708603 694.965881,190.975662 691.210876,190.896713 
	C684.474548,190.755112 681.097229,187.142303 681.667847,180.410370 
	C681.849670,178.264999 682.337341,176.145538 682.765442,173.593750 
z"/>
<path fill="#06BED6" opacity="1.000000" stroke="none" 
	d="
M560.930176,146.993103 
	C565.625000,146.298264 567.287537,147.349167 566.162292,152.188492 
	C564.244751,160.435547 563.015503,168.843643 561.535034,177.190796 
	C561.031372,180.030014 560.503784,182.986343 565.190613,181.337204 
	C566.822510,180.762985 567.632629,181.537628 568.033447,183.132996 
	C568.376526,184.498550 568.735840,185.801575 567.185425,186.599487 
	C561.695679,189.424713 556.167175,192.179886 549.730469,191.781342 
	C548.757324,191.721100 547.360962,191.630585 546.914795,191.010849 
	C543.216614,185.874634 539.247742,188.735657 535.201904,190.317993 
	C533.367920,191.035278 531.380127,191.546234 529.422791,191.729019 
	C520.779663,192.536163 517.521973,189.308533 517.864624,180.594437 
	C518.050293,175.875473 519.615845,171.477219 520.822144,166.988693 
	C523.378967,157.474487 523.364868,157.470688 519.600891,149.223557 
	C525.668945,147.791840 531.738831,147.204254 537.878784,146.965851 
	C540.783081,146.853058 541.059814,148.579712 541.171021,150.756699 
	C541.430664,155.841324 540.065247,160.639542 538.775269,165.469223 
	C537.831238,169.003571 536.998779,172.570023 536.211914,176.143158 
	C535.740540,178.283691 535.190491,180.851364 538.218506,181.352066 
	C540.811035,181.780746 543.142883,180.928360 543.751343,177.717636 
	C545.143921,170.369415 546.788330,163.065750 548.036438,155.694199 
	C549.346375,147.958008 549.195190,147.921265 556.981384,147.101944 
	C558.135620,146.980484 559.307312,147.024597 560.930176,146.993103 
z"/>
<path fill="#07BED6" opacity="1.000000" stroke="none" 
	d="
M377.997223,174.008759 
	C376.108826,175.587112 371.682281,173.272537 372.571533,177.685287 
	C373.283997,181.220612 376.097595,182.269089 379.406342,182.088562 
	C382.612122,181.913666 385.652588,180.956223 388.346497,179.278458 
	C390.151337,178.154434 390.979431,178.934174 392.019104,180.218567 
	C393.299957,181.800873 392.716339,182.882172 391.368988,183.981201 
	C384.380676,189.681519 376.542328,192.785675 367.407257,191.605011 
	C360.290985,190.685272 355.425171,185.987213 353.884155,178.869217 
	C349.428925,158.290344 366.196167,141.651840 386.010651,147.110855 
	C390.765350,148.420822 395.128448,150.584747 396.039764,156.265167 
	C396.960907,162.006866 394.634369,166.172852 389.879883,169.343109 
	C386.345154,171.699997 382.408569,172.848984 377.997223,174.008759 
z"/>
<path fill="#06BED6" opacity="1.000000" stroke="none" 
	d="
M402.393158,172.295532 
	C403.620239,167.380325 404.716400,162.860550 405.835480,158.346436 
	C406.447357,155.878326 405.967041,154.435974 402.976868,154.945084 
	C400.452332,155.374908 398.919159,154.771149 398.986664,151.640366 
	C399.049957,148.703827 399.953308,147.190414 403.044373,147.650574 
	C407.099274,148.254196 407.628143,146.017120 407.599457,142.644791 
	C407.526978,134.115204 407.648499,134.114166 416.036255,132.432755 
	C426.727966,130.289490 427.524597,130.873337 425.890778,141.901382 
	C425.255707,146.188141 425.769928,148.316895 430.603485,147.656784 
	C432.597351,147.384491 434.446533,147.701447 433.860352,150.483932 
	C433.434052,152.507721 433.400909,155.503128 430.270752,154.619156 
	C424.301239,152.933319 422.889526,155.949463 422.231720,160.976105 
	C421.500610,166.563171 420.056549,172.053192 419.129486,177.619873 
	C418.622711,180.662811 419.203339,183.282043 423.268768,181.653915 
	C425.419159,180.792740 426.220215,181.619141 427.036774,183.395721 
	C427.915344,185.307220 426.846924,186.224075 425.497986,186.990891 
	C421.000549,189.547531 416.401398,191.807098 411.037048,191.843384 
	C403.690857,191.893066 400.146576,188.244156 400.843536,181.025879 
	C401.113647,178.228470 401.783875,175.469696 402.393158,172.295532 
z"/>
<path fill="#EBF2F6" opacity="1.000000" stroke="none" 
	d="
M183.791336,213.895355 
	C166.353745,225.266922 146.006973,217.791840 138.099609,197.065018 
	C136.625595,193.201355 135.052444,189.328613 134.688843,185.100998 
	C134.565201,183.663452 134.128998,182.183640 132.844193,181.130630 
	C129.324097,178.245651 128.311661,174.247757 128.298203,169.963821 
	C128.291321,167.772705 127.589607,166.333740 125.834038,164.922562 
	C120.840134,160.908295 119.114754,155.572556 120.538681,149.323105 
	C121.318642,145.899918 121.496338,142.897003 119.819008,139.360641 
	C117.407524,134.276489 118.077469,128.843201 122.411514,124.643471 
	C124.202148,122.908333 124.994095,121.215408 125.193245,118.665565 
	C125.906258,109.536453 130.842697,104.499580 140.016602,103.386253 
	C142.662079,103.065201 144.666489,102.279823 146.427155,100.233253 
	C148.164383,98.213913 150.427475,96.726685 153.029251,95.889549 
	C156.111908,94.897705 158.604187,93.285583 160.528595,90.487999 
	C162.288651,87.929298 165.061584,86.359924 168.333206,87.164040 
	C170.356949,87.661446 172.175079,87.545532 174.147919,87.122261 
	C176.374207,86.644630 178.783310,87.164833 180.164017,88.826172 
	C184.084686,93.543785 191.627518,96.255569 188.427383,105.632195 
	C193.705704,102.013092 198.421692,104.115402 202.946960,103.683586 
	C209.002258,103.105797 216.803925,113.827675 216.476624,119.946907 
	C216.204254,125.039589 217.373550,130.259415 212.261581,133.832352 
	C211.929337,134.064575 212.207977,135.415421 212.439880,136.173264 
	C215.475067,146.091904 213.587662,155.230392 208.149551,163.826141 
	C206.615021,166.251694 205.694275,168.795227 205.705902,171.771408 
	C205.712799,173.535004 205.457520,175.835251 204.363174,176.976929 
	C198.966324,182.607254 198.908630,190.295883 196.197998,196.934845 
	C193.505386,203.529617 189.885117,209.369751 183.791336,213.895355 
z"/>
<path fill="#E8F2F7" opacity="1.000000" stroke="none" 
	d="
M474.800262,177.573486 
	C475.874847,172.123306 476.810425,167.061707 477.998138,162.059982 
	C478.457123,160.127213 477.926025,157.394028 480.727997,156.748444 
	C483.907898,156.015778 487.440826,155.922440 489.575165,158.584030 
	C494.053680,164.168793 492.707672,170.523163 490.552490,176.559387 
	C488.734558,181.650879 484.544189,183.981918 479.254181,183.839233 
	C475.218689,183.730392 473.234589,182.260620 474.800262,177.573486 
z"/>
<path fill="#E5F2F6" opacity="1.000000" stroke="none" 
	d="
M485.307190,127.451172 
	C490.233582,125.070404 493.175201,126.242653 493.793701,130.768539 
	C494.702728,137.420425 492.596405,143.148605 487.669159,147.787170 
	C486.100037,149.264359 484.059174,150.043518 482.217651,149.267944 
	C480.045929,148.353271 481.696899,146.290314 481.925812,144.878387 
	C482.850403,139.175217 484.055542,133.517517 485.307190,127.451172 
z"/>
<path fill="#E8F2F7" opacity="1.000000" stroke="none" 
	d="
M312.224030,175.221069 
	C313.216278,170.601212 314.020020,166.368881 314.981689,162.172745 
	C315.542511,159.725845 315.309265,156.581909 319.132507,156.432632 
	C322.957306,156.283310 326.492706,156.830307 328.437042,160.690735 
	C331.095001,165.968002 329.254364,176.544556 324.973022,180.776764 
	C323.405823,182.325958 321.502960,183.342300 319.325897,183.724899 
	C312.670441,184.894577 311.027802,183.037537 312.224030,175.221069 
z"/>
<path fill="#E5F2F6" opacity="1.000000" stroke="none" 
	d="
M323.431580,126.230560 
	C329.322906,125.986763 330.839874,127.234009 331.023010,132.417908 
	C331.232330,138.342514 329.453583,143.552979 325.003937,147.688492 
	C323.279755,149.290955 321.020569,150.151169 319.069122,149.275635 
	C317.120850,148.401505 318.682648,146.228027 318.964935,144.786545 
	C320.171356,138.626083 321.660065,132.520889 323.431580,126.230560 
z"/>
<path fill="#E5F2F6" opacity="1.000000" stroke="none" 
	d="
M649.061584,182.017822 
	C645.832947,181.707993 645.315491,179.649033 645.158142,177.364899 
	C644.753174,171.487442 645.736145,165.768112 647.217896,160.115372 
	C647.695923,158.291885 648.915100,156.905014 650.088196,155.491028 
	C651.469116,153.826508 653.333130,153.624100 655.070129,154.318405 
	C656.925842,155.060135 656.097473,156.849670 655.887756,158.260406 
	C654.910278,164.836960 653.850525,171.401749 652.932373,177.986389 
	C652.627441,180.173325 652.065430,181.903778 649.061584,182.017822 
z"/>
<path fill="#E2F1F6" opacity="1.000000" stroke="none" 
	d="
M590.457886,169.585861 
	C591.249451,165.928894 591.955383,162.701187 592.704163,159.483444 
	C593.180420,157.436874 594.556458,155.970566 596.119690,154.719666 
	C597.393860,153.700165 599.000427,153.794281 600.394043,154.311249 
	C602.097961,154.943344 601.450623,156.436172 601.247742,157.728088 
	C600.194458,164.436462 599.102539,171.139984 598.169495,177.865372 
	C597.837219,180.260117 597.227417,182.051224 594.364807,182.032578 
	C591.290527,182.012527 590.372437,180.013489 590.268066,177.472717 
	C590.166260,174.994110 590.338501,172.504257 590.457886,169.585861 
z"/>
<path fill="#DDF0F5" opacity="1.000000" stroke="none" 
	d="
M698.986450,204.994019 
	C696.652161,206.529144 694.147644,207.838104 692.817932,204.958160 
	C691.469543,202.037735 693.993347,200.498474 696.441833,199.621155 
	C698.547424,198.866669 701.848938,196.937866 702.724243,198.540543 
	C703.954041,200.792343 701.232605,203.064407 698.986450,204.994019 
z"/>
<path fill="#DDF0F5" opacity="1.000000" stroke="none" 
	d="
M378.937531,153.284698 
	C381.656372,157.412949 378.122009,166.783249 373.691559,168.337341 
	C372.533752,168.743469 371.870300,168.627228 371.484375,167.336273 
	C370.245087,163.190536 374.093445,155.465637 378.937531,153.284698 
z"/>
<path fill="#30B5C0" opacity="1.000000" stroke="none" 
	d="
M192.163818,190.054199 
	C188.916443,200.265656 184.352692,208.989395 173.533646,212.142761 
	C162.277802,215.423416 151.806137,210.549469 145.977402,199.741119 
	C143.750626,195.611954 142.087616,191.276550 141.208359,186.694656 
	C140.427628,182.626297 139.862869,178.849777 136.283203,175.744415 
	C133.388107,173.232864 134.753433,168.863602 134.608170,165.284653 
	C134.548874,163.824036 135.191254,162.348236 135.266968,160.866699 
	C135.728592,151.833710 139.126083,145.897781 149.205261,144.526871 
	C154.137436,143.856018 158.698608,140.538239 162.185440,136.574692 
	C164.019455,134.489929 165.480911,133.929077 168.030655,135.646393 
	C172.724213,138.807632 178.322495,139.120087 183.760284,139.764130 
	C184.895554,139.898590 186.259598,139.539536 187.001740,140.635818 
	C193.064499,149.591751 200.212891,158.072037 199.885803,169.867294 
	C199.833633,171.748764 199.842255,174.114166 198.595139,175.053665 
	C193.610153,178.809006 193.761963,184.548874 192.163818,190.054199 
z"/>
<path fill="#36B6C2" opacity="1.000000" stroke="none" 
	d="
M182.932404,108.837738 
	C181.448654,112.234962 177.620209,113.162437 176.440750,116.636902 
	C176.122559,117.574249 174.343140,117.093208 173.286316,116.446602 
	C171.890686,115.592697 170.559509,115.589653 169.084290,116.437225 
	C166.873505,117.707397 165.352844,117.076118 164.589478,114.542809 
	C164.195297,113.234726 163.242004,112.367340 161.898224,111.813164 
	C159.580200,110.857178 158.168304,109.468346 160.338531,106.967941 
	C160.645325,106.614487 161.033722,105.851089 160.884705,105.652679 
	C156.371429,99.643425 164.118362,98.428040 165.209579,94.623573 
	C165.488815,93.650063 166.664871,92.864151 167.605789,93.439903 
	C170.159363,95.002411 172.491959,94.926971 174.999619,93.377281 
	C175.726013,92.928368 176.594528,93.566765 177.095016,94.299263 
	C177.371582,94.704033 177.428391,95.435234 177.775330,95.589432 
	C183.695755,98.220779 181.320770,104.111488 182.932404,108.837738 
z"/>
<path fill="#35B6C2" opacity="1.000000" stroke="none" 
	d="
M210.475845,125.162071 
	C209.379562,129.153809 204.104263,129.001755 203.246597,133.347107 
	C203.073471,134.224365 200.624847,131.979233 199.886520,132.381836 
	C194.359451,135.395660 192.137970,130.644913 188.788147,128.182465 
	C187.325821,127.107506 186.466904,126.192566 187.256088,124.639252 
	C188.249329,122.684311 188.334106,120.917412 187.356598,118.970947 
	C186.397873,117.061928 187.235519,115.815666 189.092239,115.098053 
	C189.401138,114.978661 189.751038,114.932602 190.024902,114.761360 
	C190.872406,114.231453 200.964172,110.186493 201.797409,110.013794 
	C203.280685,109.706367 204.370392,110.039726 204.995331,111.561676 
	C205.361923,112.454430 205.730026,113.770401 206.424591,114.033981 
	C210.181915,115.459862 211.203979,117.557487 209.102188,121.211441 
	C208.424316,122.389938 209.679382,123.686058 210.475845,125.162071 
z"/>
<path fill="#E7F0F4" opacity="1.000000" stroke="none" 
	d="
M181.869751,191.182495 
	C182.494080,193.660706 181.512085,194.916519 179.812424,196.073929 
	C172.173492,201.275803 162.138260,201.335098 154.506195,196.151611 
	C152.536758,194.814026 150.898239,193.204697 152.590698,190.894287 
	C154.107483,188.823669 155.963837,189.862381 157.792923,191.091415 
	C163.966980,195.240128 170.262756,195.067215 176.425629,191.047577 
	C178.247543,189.859253 179.865860,188.990402 181.869751,191.182495 
z"/>
<path fill="#E3EFF3" opacity="1.000000" stroke="none" 
	d="
M144.085724,153.767929 
	C150.282028,152.530777 156.010666,152.191711 161.409256,155.182983 
	C163.070663,156.103546 165.474396,156.841553 164.466034,159.487396 
	C163.417404,162.238861 161.130264,161.807266 159.049026,160.846863 
	C154.464615,158.731369 149.810486,158.620132 145.008240,159.918182 
	C142.737671,160.531906 139.947357,161.233795 139.274170,158.089218 
	C138.630768,155.083878 141.386017,154.438751 144.085724,153.767929 
z"/>
<path fill="#E7F0F4" opacity="1.000000" stroke="none" 
	d="
M173.817139,154.692841 
	C179.795181,152.153046 185.511383,152.638672 191.214371,154.016022 
	C193.162659,154.486542 195.298309,155.337372 194.942429,157.859024 
	C194.560104,160.568192 192.260559,160.452377 190.263290,160.075653 
	C184.557678,158.999466 178.951187,158.307205 173.453751,161.143539 
	C172.041870,161.871994 170.364426,161.263046 169.937332,159.460449 
	C169.268738,156.638565 171.476364,155.795197 173.817139,154.692841 
z"/>
<path fill="#E3EFF3" opacity="1.000000" stroke="none" 
	d="
M162.131271,180.669006 
	C164.808990,179.444839 167.288651,180.180023 169.725235,180.050415 
	C171.877136,179.935944 173.490555,181.296265 172.614716,183.427551 
	C171.038101,187.264145 167.389008,186.239792 164.458389,185.825851 
	C161.982147,185.476135 160.105957,183.988220 162.131271,180.669006 
z"/>
<path fill="#E3EFF3" opacity="1.000000" stroke="none" 
	d="
M179.803711,169.112305 
	C177.513245,167.256729 177.468155,165.214783 178.566742,163.170685 
	C179.399323,161.621506 180.926422,160.905457 182.711716,161.135605 
	C184.518661,161.368561 185.576584,162.586380 186.196106,164.209595 
	C187.512894,167.659698 184.794250,169.945450 179.803711,169.112305 
z"/>
<path fill="#E3EFF3" opacity="1.000000" stroke="none" 
	d="
M148.246292,163.576721 
	C150.025116,161.035904 151.957001,160.266174 154.347565,161.952606 
	C156.199524,163.259094 156.775421,165.167526 155.930069,167.182617 
	C155.098480,169.164825 153.386108,170.385651 151.163101,169.712204 
	C148.371826,168.866592 147.306625,166.817810 148.246292,163.576721 
z"/>
<path fill="#E3EFF3" opacity="1.000000" stroke="none" 
	d="
M175.510345,104.951523 
	C173.543686,109.670845 171.188126,110.867592 168.694366,108.658852 
	C167.260391,107.388763 166.512039,105.695709 167.195908,103.757011 
	C167.796753,102.053688 169.133026,101.140282 170.943710,100.996223 
	C173.566620,100.787552 174.864578,102.289238 175.510345,104.951523 
z"/>
<path fill="#DDF0F5" opacity="1.000000" stroke="none" 
	d="
M198.175583,125.958733 
	C195.376999,125.228729 194.210220,123.531136 194.423416,121.105667 
	C194.579269,119.332596 195.769623,118.062698 197.448212,117.469627 
	C199.221649,116.843048 200.752182,117.592567 201.927231,118.860092 
	C204.324295,121.445808 202.916168,124.359001 198.175583,125.958733 
z"/>
</svg>